<?xml version="1.0" ?><svg data-name="Layer 1" id="Layer_1" viewBox="0 0 2000 2000" xmlns="http://www.w3.org/2000/svg" xmlns:xlink="http://www.w3.org/1999/xlink"><defs><style>.cls-1{fill:none;}.cls-2,.cls-3{fill:#e6e6e6;}.cls-14,.cls-2,.cls-4,.cls-5,.cls-8{fill-rule:evenodd;}.cls-11,.cls-5{fill:#fff;}.cls-6{clip-path:url(#clip-path);}.cls-7{clip-path:url(#clip-path-2);}.cls-12,.cls-8{fill:#00eefa;}.cls-9{clip-path:url(#clip-path-3);}.cls-10{clip-path:url(#clip-path-4);}.cls-13{clip-path:url(#clip-path-5);}.cls-14{fill:#ffa41b;}.cls-15{clip-path:url(#clip-path-6);}.cls-16{clip-path:url(#clip-path-7);}.cls-17{clip-path:url(#clip-path-8);}</style><clipPath id="clip-path"><path class="cls-1" d="M1828.62,1347.05c-11.7-26.47-125.12-14-129.93,126.1-2.15,62.35-177.43,64.6-177.43,64.6s34.08-98.8,118.9-151.42S1828.62,1347.05,1828.62,1347.05Z"/></clipPath><clipPath id="clip-path-2"><path class="cls-1" d="M1749.85,1134.11c-28.73-27.74-167.16,47.24-100.4,228.75,29.71,80.79-193.1,174.89-193.1,174.89s-7.86-144,73.13-255.37S1749.85,1134.11,1749.85,1134.11Z"/></clipPath><clipPath id="clip-path-3"><polygon class="cls-1" points="1153.11 888.4 1040.31 658.67 1153.11 720.63 1265.9 658.67 1153.11 888.4"/></clipPath><clipPath id="clip-path-4"><polygon class="cls-1" points="1153.11 403.11 1040.31 628.73 1153.11 689.82 1265.9 628.73 1153.11 403.11"/></clipPath><clipPath id="clip-path-5"><path class="cls-1" d="M428.13,1029.4H309.9s30.63,131.16,30.63,199.45c0,72.4-30.63,234.91-30.63,234.91H428.13s30.63-158.86,30.63-231.26C458.76,1163,428.13,1029.4,428.13,1029.4Z"/></clipPath><clipPath id="clip-path-6"><path class="cls-1" d="M511.52,881.94c15.42,15.39,59.55,55.11,98.55,47.67,49-9.36,87.69-109.34,87.69-109.34l-30.44-15.82s-21.44,56.28-65.16,55.09c-27.74-.76-74.78-84.55-112.89-98.69-36.38-13.5-88.9-22.89-115.63,13.88-34.16,47-72.63,267.14-72.63,267.14,80.58,34.79,159.88,27.3,217.86-1.86Z"/></clipPath><clipPath id="clip-path-7"><path class="cls-1" d="M458.79,683.15H420l-3.15,65.74c1.37,17.79,35.09,17.48,41.91,3.48Z"/></clipPath><clipPath id="clip-path-8"><path class="cls-1" d="M1282.23,1553.67c45.84,0,83-33.56,83-74.9s-37.2-74.93-83-74.93c-36.12,0-66.85,20.83-78.31,49.86-1.56-.12-3.15-.2-4.77-.2-22.27,0-41.49,11.86-50.32,28.94a46.17,46.17,0,0,0-25.64-3c-19.25,3.27-33.83,18.51-33.83,36.82,0,20.66,18.61,37.45,41.52,37.45Z"/></clipPath></defs><g data-name=" 1-Non-Fungible-Token" id="_1-Non-Fungible-Token"><path class="cls-2" d="M625.39,1534.73c-28.37-47.66-8.9-134.33,49.17-144.55,61.83-10.92,119,40.23,194.52,19.64,90.19-24.56,140.28-119.38,230.66-142.65,96.49-24.85,162,54.13,246.88,82.91,89.84,30.44,243-34.63,283.94,87.8,9.1,27.25-3.25,74.7.47,103.24Z"/><circle class="cls-3" cx="1366.53" cy="1220.78" r="85.77"/><path class="cls-4" d="M625.65,1539.26H1652.58a1.5,1.5,0,0,0,1.49-1.5,1.48,1.48,0,0,0-1.49-1.5H625.65a1.49,1.49,0,0,0-1.5,1.5A1.5,1.5,0,0,0,625.65,1539.26Z"/><path class="cls-4" d="M171.38,1539.26h82.51a1.5,1.5,0,0,0,1.5-1.5,1.49,1.49,0,0,0-1.5-1.5H171.38a1.49,1.49,0,0,0-1.5,1.5A1.5,1.5,0,0,0,171.38,1539.26Z"/><path class="cls-4" d="M278.93,1539.26h82.51a1.5,1.5,0,0,0,1.5-1.5,1.49,1.49,0,0,0-1.5-1.5H278.93a1.49,1.49,0,0,0-1.5,1.5A1.5,1.5,0,0,0,278.93,1539.26Z"/><path class="cls-4" d="M218.46,1568.15h90.91a1.5,1.5,0,0,0,1.5-1.5,1.48,1.48,0,0,0-1.5-1.5H218.46a1.48,1.48,0,0,0-1.5,1.5A1.5,1.5,0,0,0,218.46,1568.15Z"/><path class="cls-4" d="M300.43,1598.39H481.84a1.45,1.45,0,0,0,1.47-1.41,1.47,1.47,0,0,0-1.47-1.53H300.43a1.48,1.48,0,1,0,0,2.94Z"/><path class="cls-4" d="M1487.32,1573.05h90.92a1.5,1.5,0,0,0,1.49-1.5,1.48,1.48,0,0,0-1.49-1.5h-90.92a1.48,1.48,0,0,0-1.49,1.5A1.5,1.5,0,0,0,1487.32,1573.05Z"/><path class="cls-4" d="M1350,1588.58h171.24a1.5,1.5,0,0,0,1.5-1.5,1.48,1.48,0,0,0-1.5-1.5H1350a1.51,1.51,0,0,0-1.53,1.5A1.53,1.53,0,0,0,1350,1588.58Z"/><path class="cls-5" d="M1828.62,1347.05c-11.7-26.47-125.12-14-129.93,126.1-2.15,62.35-177.43,64.6-177.43,64.6s34.08-98.8,118.9-151.42S1828.62,1347.05,1828.62,1347.05Z"/><g class="cls-6"><path class="cls-4" d="M1648.32,1356.77c6.15,4.94,9.68,5.24,13.28,12,3.12,6,7.82,14.2,9.29,20.77a48.66,48.66,0,0,1,1.29,12c-.57,19.75-10.55,26-24.76,37-19,14.72-41.12,28.86-54.94,48.86-5.27,7.58-10.73,17.53-8.3,27.06,2.61,10.16,24.4,19.66,8.78,29.25a40,40,0,0,1-7.37,3.42c-11.39,4-23.89,5.13-35.85,5a121.32,121.32,0,0,1-27.75-2.94,50.87,50.87,0,0,1-15.35-6.3c-26.28-16.51-15.88-53.68-3.8-75.77,2.72-4.94,5.66-9.77,8.84-14.44q5-7.34,10.67-14.24a226.26,226.26,0,0,1,15.37-16.81C1561.25,1398.13,1620.3,1374.54,1648.32,1356.77Z"/></g><path class="cls-4" d="M1761,1346a89.51,89.51,0,0,1,35.19-11.31c10-.91,18.7.41,24.85,3.36,4.33,2.07,7.43,5,9,8.44a1.5,1.5,0,0,1-1.57,2.09s-27.86-3.6-66.46.31c-30.11,17.09-59.39,54.9-61.78,124.35-.65,19.24-17.16,33.07-40.17,42.78-52.51,22.14-138.73,23.26-138.73,23.26a1.44,1.44,0,0,1-1.22-.61,1.46,1.46,0,0,1-.22-1.38s34.26-99.3,119.52-152.19C1680.06,1359.81,1725.06,1349.67,1761,1346Zm-6.06,3.68c-28.8,18.84-55.44,56.87-57.74,123.46-.62,18.19-16.57,30.94-38.35,40.11-47.15,19.9-121.78,22.65-135.42,23,5.37-14.3,40.3-100.69,117.53-148.61C1678.84,1364.09,1720.52,1353.83,1754.93,1349.64Zm14.1-4.42a334.22,334.22,0,0,1,56.74,0h0a17.09,17.09,0,0,0-6-4.54c-5.76-2.75-13.93-3.93-23.29-3.07A84.37,84.37,0,0,0,1769,1345.22Z"/><path class="cls-4" d="M1636.46,1426.51l-.18.12c2.46-8.36,4.32-15.76,3.06-29.25a1.51,1.51,0,0,0-3,.27c1.38,14.87-1.17,22.09-4,31.77a2.63,2.63,0,0,0-.06.48c-17.15,14.06-34.41,29.43-51.53,45.65,3.36-9.44,4.5-17.51,4-30.21a1.5,1.5,0,0,0-1.56-1.44,1.49,1.49,0,0,0-1.44,1.56c.54,14.77-1.14,23-6.14,35-18.79,18-37.38,37-55.45,56.29a1.51,1.51,0,0,0,2.19,2.07c14.42-15.44,29.16-30.63,44.06-45.29a1.34,1.34,0,0,0,.69,0c24.19-6.8,53.14-11.93,76.34-13.13,15.19-.75,27.9.15,35,3.51a1.51,1.51,0,1,0,1.29-2.73c-5.57-2.63-14.44-3.89-25.26-4-23.47-.24-56.26,4.91-83.87,12.28l.3-.3c11.87-11.53,23.95-22.86,36.3-33.86q6.43-5.71,13-11.3h0c22.39-8.37,61.86-15.29,76.31-12.89a1.49,1.49,0,1,0,.51-2.94c-13.28-2.22-47.27,3.18-70.59,10.52h0q9.09-7.64,18.38-15c5-4,10.07-7.83,15.16-11.63,4.11-3,8.21-6,12.38-8.93q9.26-6.48,18.76-12.56c6-3.81,12.11-7.47,18.31-10.94,2.34-1.32,4.71-2.61,7.08-3.87.72-.39,1.47-.78,2.22-1.17l.74-.36.24-.15a.54.54,0,0,0,.21-.15,1.58,1.58,0,0,0,.36-.42,1.68,1.68,0,0,0,.15-1,1.73,1.73,0,0,0-.15-.42,2.29,2.29,0,0,0-.24-.33,2.7,2.7,0,0,0-.36-.26,2,2,0,0,0-.5-.18,1.57,1.57,0,0,0-.75.09c-.12.06-.21.12-.33.17s-.51.24-.75.39c-1,.51-2,1-3,1.56-1.44.75-2.88,1.53-4.32,2.31-2.39,1.35-4.76,2.7-7.13,4.08-4.08,2.36-8.15,4.82-12.14,7.34q-10.38,6.52-20.38,13.61C1658.79,1409,1647.49,1417.58,1636.46,1426.51Z"/><path class="cls-5" d="M1749.85,1134.11c-28.73-27.74-167.16,47.24-100.4,228.75,29.71,80.79-193.1,174.89-193.1,174.89s-7.86-144,73.13-255.37S1749.85,1134.11,1749.85,1134.11Z"/><g class="cls-7"><path class="cls-4" d="M1485,1301.48c22.41,9,51.7,22.19,67.35,42.43,8.49,11,15.69,24.94,15.84,39.15.23,22.6-8.14,31.56-10.57,53.87-1.47,13.46,2.22,27.08.24,40.35-1.63,10.93-7.94,21.36-15,29.64a63.3,63.3,0,0,1-12.91,11.75c-28.91,19.51-66.19,4.72-77.27-27.45-9.56-27.8-3.4-58.79,3-86.58C1462.46,1374.4,1475.29,1330.9,1485,1301.48Z"/></g><path class="cls-4" d="M1663.24,1168.34c12-15,25.76-25.88,38.94-32.69,12.21-6.3,23.9-9.15,33.22-8.58,6.46.38,11.81,2.4,15.51,6a1.5,1.5,0,0,1,.4,1.45,1.53,1.53,0,0,1-1.06,1.07s-37.58,10-85,35.1c-29.73,37.6-47.6,101.36-14.37,191.7,9.09,24.72-4.78,50.76-29,75-55.47,55.53-165,101.77-165,101.77a1.45,1.45,0,0,1-1.38-.12,1.37,1.37,0,0,1-.69-1.17s-7.93-144.5,73.37-256.32C1567.08,1228.09,1619.3,1191.77,1663.24,1168.34Zm-4.33,5.74c-27.81,38.8-43.07,101.75-10.86,189.31,8.75,23.74-5,48.56-28.24,71.83-50.78,50.79-147,93.76-162,100.3-.58-18.29-2-149.25,72.93-252.25C1567.56,1232.57,1616.57,1197.37,1658.91,1174.08Zm11.32-9.39c37.19-19,67.32-28.57,76.43-31.23h0a23.07,23.07,0,0,0-11.44-3.4c-8.87-.53-20,2.24-31.65,8.26A118.33,118.33,0,0,0,1670.23,1164.69Z"/><path class="cls-4" d="M1545.12,1337.77c-1.29-12.67-2.46-23.26-11.48-40.58a1.49,1.49,0,1,0-2.64,1.38c9.57,18.38,10,29,11.48,42.89a1.13,1.13,0,0,0,.24.68c-15,27.66-29.46,57.09-43.25,87.61-.39-14.93-3-26.08-10.61-42.89a1.48,1.48,0,0,0-2-.75,1.46,1.46,0,0,0-.75,2c8.45,18.73,10.58,30.21,10.4,48.25-14.66,32.79-28.54,66.72-41.57,100.89a1.48,1.48,0,1,0,2.78,1c10.43-27.33,21.4-54.51,32.88-81.1a1.5,1.5,0,0,0,.93-.3c32-24.85,73.37-50.14,104.78-62.58,13.28-5.25,24.73-8.21,32.85-7.76a1.53,1.53,0,0,0,1.59-1.41,1.49,1.49,0,0,0-1.41-1.59c-8.45-.48-20.35,2.52-34.14,8-30.63,12.11-70.67,36.39-102.38,60.58,12.92-29.71,26.5-58.6,40.61-86,24.34-22.42,71.37-51.94,91.15-56.38a1.5,1.5,0,0,0,1.14-1.79,1.48,1.48,0,0,0-1.77-1.13c-18.58,4.17-60.94,30-86.68,51.92,27.06-51.67,56.14-97.75,86.92-133.65a1.49,1.49,0,0,0-.15-2.11,1.52,1.52,0,0,0-2.13.16C1595,1254.54,1569.28,1293.79,1545.12,1337.77Z"/><path class="cls-5" d="M1545.25,1146.47c-30.2-10.67-106.27,90.12,2.86,200.36,48.57,49.07-82.72,191.89-82.72,191.89s-53.66-102.45-31.62-210.69S1545.25,1146.47,1545.25,1146.47Z"/><path class="cls-4" d="M1493.16,1200.16a99.28,99.28,0,0,1,17.58-36.88c6.86-8.71,14.5-14.7,21.52-17.41,4.93-1.9,9.55-2.2,13.49-.81a1.48,1.48,0,0,1,1,1.15,1.46,1.46,0,0,1-.53,1.42s-24,19.72-50.25,53.8c-9.12,37.27-.94,89.61,53.24,144.35,14.93,15.09,13.54,38.82,3.9,64.65-22,59.06-86.58,129.31-86.58,129.31a1.59,1.59,0,0,1-1.3.47,1.56,1.56,0,0,1-1.13-.8s-53.91-102.92-31.77-211.68C1442.87,1275.81,1468.87,1231.88,1493.16,1200.16Zm-1.49,7c-7,37.53,3.23,88.08,55.39,140.76,14.19,14.34,12.36,36.92,3.2,61.5-19.89,53.36-74.83,115.95-84.49,126.71-7.15-14.53-50.69-108.72-30.53-207.77C1445.15,1279.65,1468.76,1238.08,1491.67,1207.13Zm6.43-13.28a367.76,367.76,0,0,1,43.92-46.58h0a18.84,18.84,0,0,0-8.69,1.4c-6.62,2.55-13.77,8.25-20.22,16.46A93.23,93.23,0,0,0,1498.1,1193.85Z"/><path class="cls-4" d="M1463.39,1362.26c-5-8.48-9.47-15.67-21.46-25a1.49,1.49,0,0,0-2.1.26,1.51,1.51,0,0,0,.24,2.1c13.07,10.19,16.93,17.75,22.57,27.4a5.22,5.22,0,0,0,.36.42c-1.71,24.72-2.46,50.56-2.4,76.87-5.1-10.16-10.73-17.26-21.52-26.7a1.52,1.52,0,0,0-2.13.15,1.48,1.48,0,0,0,.15,2.1c12.38,10.82,17.71,18.46,23.56,31.59.21,28.8,1.38,58.17,3.24,87.43a1.5,1.5,0,0,0,3-.18c-1.5-23.38-2.51-46.82-3-70a1.65,1.65,0,0,0,.54-.57c12.88-24.64,30.72-51.85,47.41-71.42,10.94-12.86,21.34-22.42,29.46-25.6a1.5,1.5,0,0,0,.84-1.92,1.51,1.51,0,0,0-2-.86c-6.35,2.48-14.08,8.66-22.35,17.23-18.11,18.85-39,49.39-54.07,77.39-.42-25.6-.12-50.78,1-75.11,10.31-24.43,34.73-61.51,47.65-71.31a1.49,1.49,0,1,0-1.8-2.38c-12,9.07-33.69,41-45.44,65.47,2.61-46.09,8.49-88.85,18.89-124.89a1.5,1.5,0,0,0-2.88-.83C1472.08,1285.6,1466.41,1322.49,1463.39,1362.26Z"/><path class="cls-4" d="M1147.45,1002c-2.32-1.32-5.72-3.3-10.08-5.78a1.49,1.49,0,0,0-1.5,2.58c4.36,2.49,7.76,4.46,10.08,5.83a1.51,1.51,0,0,0,1.5-2.63Zm24.44-10.89-10,5.79a1.51,1.51,0,0,0,1.49,2.62c2.9-1.7,6.27-3.64,10.05-5.82a1.47,1.47,0,0,0,.54-2.05A1.5,1.5,0,0,0,1171.89,991.1ZM1121.47,987l-10-5.78a1.49,1.49,0,1,0-1.5,2.58l10,5.79a1.5,1.5,0,1,0,1.5-2.59Zm76.4-10.89-10.08,5.79a1.5,1.5,0,0,0-.55,2,1.46,1.46,0,0,0,2,.54l10.07-5.78a1.5,1.5,0,0,0,.55-2.05A1.47,1.47,0,0,0,1197.87,976.12ZM1095.53,972c-3.27-1.87-6.61-3.81-10-5.82a1.51,1.51,0,0,0-1.5,2.62c3.44,2,6.78,3.92,10,5.79a1.5,1.5,0,0,0,1.5-2.59Zm128.28-10.92q-5.16,3-10,5.82a1.5,1.5,0,0,0-.58,2,1.54,1.54,0,0,0,2.07.55c3.27-1.88,6.61-3.82,10-5.79a1.51,1.51,0,0,0,.54-2.05A1.48,1.48,0,0,0,1223.81,961.11Zm-154.23-4.06c-3.3-1.9-6.67-3.84-10.07-5.82a1.5,1.5,0,1,0-1.5,2.59c3.4,2,6.77,3.92,10.08,5.82a1.49,1.49,0,1,0,1.49-2.59Zm180.17-10.92c-3.37,2-6.74,3.91-10,5.82a1.49,1.49,0,0,0-.55,2,1.51,1.51,0,0,0,2,.55c3.3-1.91,6.67-3.85,10.07-5.83a1.49,1.49,0,0,0,.55-2A1.54,1.54,0,0,0,1249.75,946.13Zm-206.14-4.06c-3.31-1.94-6.68-3.88-10-5.82a1.49,1.49,0,0,0-2,.55,1.47,1.47,0,0,0,.55,2c3.37,2,6.7,3.88,10,5.82a1.5,1.5,0,0,0,1.5-2.59Zm232.12-10.92c-3.37,1.94-6.74,3.88-10.08,5.82a1.5,1.5,0,0,0,1.5,2.59c3.34-1.95,6.71-3.89,10.08-5.83a1.49,1.49,0,0,0-1.5-2.58Zm-258.07-4.09-10.07-5.79a1.5,1.5,0,1,0-1.5,2.59c3.37,1.94,6.74,3.88,10.08,5.82a1.48,1.48,0,0,0,2-.58A1.51,1.51,0,0,0,1017.66,927.06Zm284-10.89c-3.34,1.94-6.71,3.88-10,5.78a1.51,1.51,0,0,0-.55,2,1.49,1.49,0,0,0,2.05.58c3.33-2,6.7-3.89,10-5.83a1.46,1.46,0,0,0,.54-2A1.5,1.5,0,0,0,1301.67,916.17Zm-310-4.09c-3.34-1.94-6.71-3.88-10.05-5.79a1.49,1.49,0,0,0-1.49,2.59c3.33,1.94,6.7,3.85,10,5.79a1.5,1.5,0,1,0,1.5-2.59Zm336-10.89c-3.34,1.9-6.71,3.84-10.08,5.78a1.5,1.5,0,0,0-.54,2,1.47,1.47,0,0,0,2,.54l10.08-5.79a1.49,1.49,0,0,0-1.5-2.58ZM965.74,897.1l-10-5.79a1.5,1.5,0,1,0-1.5,2.59l10,5.79a1.49,1.49,0,1,0,1.49-2.59Zm387.85-10.89-10,5.78a1.48,1.48,0,0,0-.55,2,1.5,1.5,0,0,0,2,.54l10-5.79a1.5,1.5,0,0,0,.54-2A1.43,1.43,0,0,0,1353.59,886.21ZM939.8,882.12c-3.44-2-6.77-3.91-10.08-5.82a1.5,1.5,0,0,0-2,.54,1.54,1.54,0,0,0,.55,2.08c3.3,1.87,6.64,3.81,10.07,5.79a1.51,1.51,0,0,0,2.05-.55A1.49,1.49,0,0,0,939.8,882.12Zm439.77-10.93c-3.31,1.91-6.64,3.85-10.08,5.82a1.5,1.5,0,1,0,1.5,2.59c3.44-2,6.77-3.91,10-5.79a1.53,1.53,0,0,0,.58-2.07A1.49,1.49,0,0,0,1379.57,871.19Zm-465.74-4.05-10.05-5.82a1.5,1.5,0,0,0-1.5,2.59l10.05,5.82a1.5,1.5,0,0,0,1.5-2.59Zm491.68-10.93c-3.2,1.84-6.57,3.78-10.08,5.82a1.5,1.5,0,0,0,1.5,2.59c3.51-2,6.88-4,10.08-5.82a1.5,1.5,0,0,0-1.5-2.59Zm-517.63-4.05-10.07-5.82a1.5,1.5,0,1,0-1.5,2.59l10.08,5.82a1.49,1.49,0,0,0,1.49-2.59Zm543.57-10.93c-2.86,1.67-6.23,3.61-10,5.82a1.5,1.5,0,1,0,1.5,2.59c3.81-2.21,7.18-4.15,10-5.82a1.46,1.46,0,0,0,.54-2A1.49,1.49,0,0,0,1431.45,841.23Zm-569.54-4.08-3.34-1.91v-6a1.5,1.5,0,0,0-3,0v6.88a1.46,1.46,0,0,0,.75,1.29s1.43.82,4.09,2.39a1.51,1.51,0,0,0,1.5-2.62Zm580-18.15v11.61a1.5,1.5,0,1,0,3,0V819a1.5,1.5,0,0,0-3,0Zm-583.3-8.15V799.24a1.5,1.5,0,0,0-3,0v11.61a1.5,1.5,0,0,0,3,0ZM1441.87,789v11.62a1.5,1.5,0,0,0,3,0V789a1.5,1.5,0,0,0-3,0Zm-583.3-8.14V769.26a1.5,1.5,0,0,0-3,0v11.62a1.5,1.5,0,0,0,3,0Zm583.3-21.83v11.61a1.5,1.5,0,0,0,3,0V759.05a1.5,1.5,0,0,0-3,0Zm-583.3-8.14V739.29a1.5,1.5,0,0,0-3,0v11.62a1.5,1.5,0,0,0,3,0Zm583.3-21.83v11.61a1.5,1.5,0,0,0,3,0V729.08a1.5,1.5,0,1,0-3,0Z"/><path class="cls-5" d="M1153.12,804.45,1270,871.9v134.9l-116.83,67.45L1036.3,1006.8V871.9Z"/><path class="cls-4" d="M1153.88,803.15a1.51,1.51,0,0,0-1.51,0L1035.55,870.6a1.52,1.52,0,0,0-.76,1.3v134.9a1.53,1.53,0,0,0,.76,1.3l116.82,67.45a1.51,1.51,0,0,0,1.51,0l116.82-67.45a1.52,1.52,0,0,0,.75-1.3V871.9a1.51,1.51,0,0,0-.75-1.3Zm-.76,3,115.33,66.58v133.17l-115.33,66.59-115.33-66.59V872.76Z"/><path class="cls-4" d="M1283.61,1017.56,1166.79,1085V950.11l116.82-67.44Z"/><path class="cls-4" d="M1270.71,1008.1a1.5,1.5,0,0,0,.74-1.3V871.9a1.5,1.5,0,0,0-2.25-1.3l-116.82,67.45a1.52,1.52,0,0,0-.75,1.3v134.91a1.52,1.52,0,0,0,.75,1.29,1.47,1.47,0,0,0,1.49,0Zm-2.26-2.16-113.83,65.71V940.22l113.83-65.73Z"/><path class="cls-8" d="M1250.59,871.25,1133.77,938.7l-116.83-67.45,116.83-67.44Z"/><path class="cls-4" d="M1270.71,873.19a1.48,1.48,0,0,0,.74-1.29,1.5,1.5,0,0,0-.74-1.3l-116.84-67.45a1.47,1.47,0,0,0-1.49,0L1035.54,870.6a1.5,1.5,0,0,0-.74,1.3,1.48,1.48,0,0,0,.74,1.29l116.84,67.46a1.52,1.52,0,0,0,1.49,0ZM1267,871.9l-113.84,65.71L1039.3,871.9l113.82-65.72Z"/><path class="cls-5" d="M1302.46,1093.56l69.84,40.32v80.65l-69.84,40.32-69.84-40.32v-80.65Z"/><path class="cls-4" d="M1303.21,1092.26a1.54,1.54,0,0,0-1.5,0l-69.84,40.33a1.47,1.47,0,0,0-.75,1.29v80.65a1.5,1.5,0,0,0,.75,1.3l69.84,40.32a1.49,1.49,0,0,0,1.5,0l69.84-40.32a1.52,1.52,0,0,0,.75-1.3v-80.65a1.49,1.49,0,0,0-.75-1.29Zm-.75,3,68.34,39.46v78.91l-68.34,39.46-68.34-39.46v-78.91Z"/><path class="cls-4" d="M1382.1,1223l-69.84,40.33v-80.65l69.84-40.32Z"/><path class="cls-4" d="M1373.05,1215.83a1.52,1.52,0,0,0,.75-1.3v-80.64a1.51,1.51,0,0,0-.75-1.3,1.49,1.49,0,0,0-1.5,0l-69.84,40.32a1.49,1.49,0,0,0-.75,1.3v80.65a1.47,1.47,0,0,0,.75,1.29,1.49,1.49,0,0,0,1.5,0Zm-2.25-2.16L1304,1252.25v-77.17l66.84-38.6Z"/><path class="cls-8" d="M1351.94,1133.31l-69.84,40.32-69.84-40.32L1282.1,1093Z"/><path class="cls-4" d="M1373.05,1135.18a1.49,1.49,0,0,0,.75-1.29,1.51,1.51,0,0,0-.75-1.3l-69.84-40.32a1.49,1.49,0,0,0-1.5,0l-69.84,40.32a1.51,1.51,0,0,0-.75,1.3,1.49,1.49,0,0,0,.75,1.29l69.84,40.32a1.49,1.49,0,0,0,1.5,0Zm-3.75-1.29-66.84,38.59-66.84-38.59,66.84-38.6Z"/><path class="cls-5" d="M1003.78,1065.74l93.94,54.23v108.47l-93.94,54.23-93.92-54.23V1120Z"/><path class="cls-4" d="M1004.54,1064.44a1.54,1.54,0,0,0-1.5,0l-93.94,54.24a1.48,1.48,0,0,0-.74,1.29v108.47a1.52,1.52,0,0,0,.74,1.3L1003,1284a1.49,1.49,0,0,0,1.5,0l93.93-54.23a1.51,1.51,0,0,0,.75-1.3V1120a1.47,1.47,0,0,0-.75-1.29Zm-.76,3,92.44,53.37v106.74L1003.78,1281l-92.43-53.37V1120.84Z"/><path class="cls-4" d="M1111.06,1237.72,1017.13,1292V1183.49l93.93-54.23Z"/><path class="cls-4" d="M1098.47,1229.74a1.5,1.5,0,0,0,.75-1.3V1120a1.5,1.5,0,0,0-2.24-1.3L1003,1172.91a1.51,1.51,0,0,0-.75,1.3v108.47a1.5,1.5,0,0,0,2.25,1.29Zm-2.25-2.16-90.94,52.49v-105l90.94-52.5Z"/><path class="cls-8" d="M1073.65,1119.4l-93.93,54.23-93.93-54.23,93.93-54.23Z"/><path class="cls-4" d="M1098.47,1121.28a1.51,1.51,0,0,0,.75-1.3,1.48,1.48,0,0,0-.75-1.3l-93.93-54.23a1.49,1.49,0,0,0-1.5,0l-93.93,54.23a1.48,1.48,0,0,0-.76,1.3,1.52,1.52,0,0,0,.76,1.3l93.93,54.23a1.49,1.49,0,0,0,1.5,0Zm-3.74-1.3-90.94,52.49L912.85,1120l90.94-52.51Z"/><path class="cls-5" d="M1153.11,888.4l-112.8-229.73,112.8,62,112.79-62Z"/><g class="cls-9"><path class="cls-4" d="M1153.42,791.18,1030,652.13l123.64,68Z"/><path class="cls-4" d="M1152.56,888.39,1263,663.48,1153.91,792.12Z"/></g><path class="cls-4" d="M1151.76,889.06a1.54,1.54,0,0,0,1.35.84,1.48,1.48,0,0,0,1.35-.84l112.79-229.73a1.45,1.45,0,0,0-.3-1.75,1.49,1.49,0,0,0-1.75-.23l-112.09,61.58L1041,657.35a1.49,1.49,0,0,0-2,2Zm1.35-4.06L1043.76,662.26,1152.41,722a1.5,1.5,0,0,0,1.45,0l108.64-59.68Z"/><path class="cls-5" d="M1153.11,403.11l-112.8,225.62,112.8,61.09,112.79-61.09Z"/><g class="cls-10"><path class="cls-4" d="M1154.34,605.65l-.83,84.32,126.87-60.51Z"/><path class="cls-4" d="M1152.64,406.85l-111,221.42,110.18-22.1Z"/></g><path class="cls-4" d="M1154.46,402.44a1.49,1.49,0,0,0-1.35-.83,1.55,1.55,0,0,0-1.35.83L1039,628.06a1.48,1.48,0,0,0,.65,2l112.8,61.09a1.55,1.55,0,0,0,1.45,0l112.79-61.09a1.46,1.46,0,0,0,.6-2Zm-1.35,4L1264,628.11l-110.84,60-110.8-60Z"/><path class="cls-4" d="M1151.65,403.11V689.82a1.49,1.49,0,0,0,1.5,1.5,1.52,1.52,0,0,0,1.5-1.5V403.11a1.52,1.52,0,0,0-1.5-1.49A1.48,1.48,0,0,0,1151.65,403.11Z"/><path class="cls-4" d="M1151.65,723.46V888.39a1.49,1.49,0,0,0,1.5,1.5,1.52,1.52,0,0,0,1.5-1.5V723.46a1.52,1.52,0,0,0-1.5-1.5A1.49,1.49,0,0,0,1151.65,723.46Z"/><path class="cls-4" d="M923.11,571.26a21.62,21.62,0,0,0-21.61-21.63H763.06a21.62,21.62,0,0,0-21.61,21.63v92.83a21.62,21.62,0,0,0,21.61,21.63H901.5a21.62,21.62,0,0,0,21.61-21.63Zm-3,0v92.83a18.64,18.64,0,0,1-18.62,18.64H763.06a18.63,18.63,0,0,1-18.61-18.64V571.26a18.63,18.63,0,0,1,18.61-18.64H901.5A18.64,18.64,0,0,1,920.12,571.26Z"/><path class="cls-8" d="M894.83,605.52A19.72,19.72,0,0,0,875,585.93H738.24a19.72,19.72,0,0,0-19.87,19.59v90.33a19.72,19.72,0,0,0,19.87,19.59H875a19.72,19.72,0,0,0,19.87-19.59Z"/><path class="cls-4" d="M903.4,597.78a21.62,21.62,0,0,0-21.61-21.63H743.35a21.62,21.62,0,0,0-21.61,21.63v92.83a21.62,21.62,0,0,0,21.61,21.63H881.79a21.62,21.62,0,0,0,21.61-21.63Zm-3,0v92.83a18.64,18.64,0,0,1-18.62,18.64H743.35a18.63,18.63,0,0,1-18.61-18.64V597.78a18.63,18.63,0,0,1,18.61-18.64H881.79A18.64,18.64,0,0,1,900.41,597.78Z"/><path class="cls-4" d="M787.14,626.71a6.08,6.08,0,0,1,5.6-3.68,6.15,6.15,0,0,1,5.63,3.68l36.86,84h-85Z"/><path class="cls-4" d="M779.29,626.11l-36.83,84a1.51,1.51,0,0,0,.1,1.43,1.54,1.54,0,0,0,1.27.67h84.94a1.49,1.49,0,0,0,1.25-.67,1.54,1.54,0,0,0,.12-1.43l-36.86-84a7.64,7.64,0,0,0-14,0Zm2.76,1.2a4.65,4.65,0,0,1,8.5,0l35.92,81.94H746.1Z"/><path class="cls-5" d="M839.52,652.31a6.13,6.13,0,0,1,10.35,0c11.34,17.74,37.31,58.44,37.31,58.44H802.24S828.21,670.05,839.52,652.31Z"/><path class="cls-4" d="M831.82,651.5c-11.34,17.74-37.31,58.44-37.31,58.44a1.5,1.5,0,0,0,1.27,2.3h84.94a1.43,1.43,0,0,0,1.3-.78,1.4,1.4,0,0,0,0-1.52s-26-40.7-37.28-58.44a7.67,7.67,0,0,0-6.45-3.53A7.58,7.58,0,0,0,831.82,651.5Zm2.51,1.61a4.64,4.64,0,0,1,3.91-2.14,4.7,4.7,0,0,1,3.93,2.14L878,709.25H798.51Z"/><circle class="cls-11" cx="856.66" cy="613.89" r="17.92"/><path class="cls-4" d="M850.2,594.46a19.43,19.43,0,1,0,19.43,19.43A19.43,19.43,0,0,0,850.2,594.46Zm0,3a16.43,16.43,0,1,1-16.42,16.43A16.42,16.42,0,0,1,850.2,597.46Z"/><circle class="cls-12" cx="1441.86" cy="622.5" r="94.78"/><path class="cls-4" d="M1445.79,519.65a96.54,96.54,0,1,0,96.54,96.54A96.56,96.56,0,0,0,1445.79,519.65Zm0,3.52a93,93,0,1,1-93.06,93A93.06,93.06,0,0,1,1445.79,523.17Z"/><circle class="cls-11" cx="1440.2" cy="622.02" r="79.1"/><path class="cls-4" d="M1445.78,535.33a80.86,80.86,0,1,0,80.87,80.85A80.9,80.9,0,0,0,1445.78,535.33Zm0,3.51a77.35,77.35,0,1,1-77.37,77.34A77.39,77.39,0,0,1,1445.78,538.84Z"/><circle class="cls-11" cx="1445.76" cy="616.18" r="55.31"/><path class="cls-4" d="M1449.62,669.6h0a1.75,1.75,0,0,0,.25,3.5h0a1.75,1.75,0,0,0-.25-3.5Zm-9.11-.12h0a1.76,1.76,0,0,0-.36,3.5h0a1.76,1.76,0,0,0,.36-3.5Zm18.1-1.31h0a1.76,1.76,0,0,0,.86,3.41h0a1.76,1.76,0,1,0-.86-3.41Zm-27.09-.34h0a1.75,1.75,0,0,0-.93,3.38h0a1.74,1.74,0,0,0,2.15-1.23A1.71,1.71,0,0,0,1431.52,667.83Zm35.76-2.6h0a1.75,1.75,0,1,0,1.38,3.22h0a1.75,1.75,0,0,0-1.38-3.22Zm-44.3-.57h0a1.76,1.76,0,1,0-1.51,3.18h0a1.76,1.76,0,1,0,1.51-3.18Zm52.27-3.8h0a1.76,1.76,0,0,0,2,2.93h0a1.74,1.74,0,0,0,.49-2.43A1.77,1.77,0,0,0,1475.25,660.86Zm-60.16-.77h0a1.75,1.75,0,0,0-2.44.43,1.73,1.73,0,0,0,.44,2.44h0a1.69,1.69,0,0,0,2.4-.43A1.75,1.75,0,0,0,1415.09,660.09Zm67.32-4.89h0a1.78,1.78,0,0,0-.08,2.48,1.76,1.76,0,0,0,2.48.08h0a1.71,1.71,0,0,0,.08-2.48A1.74,1.74,0,0,0,1482.41,655.2Zm-74.32-1h0a1.76,1.76,0,0,0-2.48,2.5h0a1.76,1.76,0,0,0,2.48,0A1.74,1.74,0,0,0,1408.09,654.24Zm80.42-5.83h0a1.76,1.76,0,0,0,.33,2.46,1.78,1.78,0,0,0,2.48-.35h0a1.77,1.77,0,0,0-.37-2.45A1.73,1.73,0,0,0,1488.51,648.41Zm-86.36-1.11h0a1.75,1.75,0,0,0-2.44-.41,1.78,1.78,0,0,0-.41,2.45h0a1.76,1.76,0,0,0,2.45.41A1.73,1.73,0,0,0,1402.15,647.3Zm91.24-6.61h0a1.73,1.73,0,0,0,.73,2.37,1.76,1.76,0,0,0,2.36-.76h0a1.74,1.74,0,1,0-3.09-1.61Zm-95.88-1.23h0a1.76,1.76,0,0,0-3.17,1.52h0a1.76,1.76,0,1,0,3.17-1.52Zm99.34-7.2h0a1.75,1.75,0,1,0,3.34,1h0a1.75,1.75,0,1,0-3.34-1Zm-102.59-1.32h0a1.8,1.8,0,0,0-2.2-1.21,1.73,1.73,0,0,0-1.18,2.17h0a1.74,1.74,0,0,0,2.16,1.21A1.78,1.78,0,0,0,1394.26,630.94Zm104.58-7.58h0a1.72,1.72,0,0,0,1.51,2,1.75,1.75,0,0,0,2-1.51h0a1.75,1.75,0,1,0-3.46-.46ZM1392.51,622h0a1.76,1.76,0,0,0-3.5.38h0a1.76,1.76,0,0,0,2,1.56A1.79,1.79,0,0,0,1392.51,622Zm106.78-7.74h0a1.71,1.71,0,0,0,1.79,1.7,1.76,1.76,0,0,0,1.71-1.82h0a1.77,1.77,0,0,0-1.83-1.7A1.74,1.74,0,0,0,1499.29,614.24Zm-107-1.38h0a1.77,1.77,0,0,0-1.67-1.85,1.7,1.7,0,0,0-1.83,1.64h0a1.72,1.72,0,0,0,1.63,1.86A1.78,1.78,0,0,0,1392.31,612.86Zm105.88-7.67h0a1.73,1.73,0,0,0,2.08,1.36,1.76,1.76,0,0,0,1.34-2.08h0a1.75,1.75,0,1,0-3.42.72Zm-104.58-1.35h0a1.75,1.75,0,0,0-1.3-2.11,1.78,1.78,0,0,0-2.12,1.3h0a1.77,1.77,0,0,0,1.3,2.11A1.73,1.73,0,0,0,1393.61,603.84Zm101.94-7.39h0a1.77,1.77,0,0,0,2.28,1,1.75,1.75,0,0,0,1-2.28h0a1.75,1.75,0,0,0-3.25,1.29Zm-99.09-1.27h0a1.75,1.75,0,1,0-3.22-1.38h0a1.77,1.77,0,0,0,.94,2.3A1.73,1.73,0,0,0,1396.46,595.18Zm95-6.89h0a1.74,1.74,0,1,0,3-1.83h0a1.74,1.74,0,1,0-3,1.83Zm-90.71-1.16h0a1.77,1.77,0,0,0-3-1.91h0a1.75,1.75,0,0,0,.53,2.43A1.78,1.78,0,0,0,1400.77,587.13Zm85.3-6.19h0a1.76,1.76,0,0,0,2.48.17,1.74,1.74,0,0,0,.16-2.48h0a1.77,1.77,0,0,0-2.48-.16A1.74,1.74,0,0,0,1486.07,580.94Zm-79.73-1h0a1.78,1.78,0,0,0-.08-2.48,1.75,1.75,0,0,0-2.48.1h0a1.78,1.78,0,0,0,.08,2.48A1.75,1.75,0,0,0,1406.34,579.92Zm73.18-5.31h0a1.72,1.72,0,0,0,2.44-.25,1.78,1.78,0,0,0-.24-2.47h0a1.77,1.77,0,0,0-2.48.25A1.75,1.75,0,0,0,1479.52,574.61Zm-66.43-.86h0a1.76,1.76,0,0,0,.29-2.46,1.74,1.74,0,0,0-2.44-.32h0a1.76,1.76,0,1,0,2.15,2.78Zm58.87-4.27h0a1.78,1.78,0,0,0,2.4-.67,1.75,1.75,0,0,0-.7-2.39h0a1.71,1.71,0,0,0-2.36.67A1.74,1.74,0,0,0,1472,569.48Zm-51.22-.67h0a1.75,1.75,0,0,0-1.63-3.1h0a1.78,1.78,0,0,0-.73,2.38A1.74,1.74,0,0,0,1420.74,568.81Zm42.92-3.11h0a1.76,1.76,0,0,0,1.18-3.31h0a1.76,1.76,0,0,0-1.18,3.31Zm-34.54-.45h0a1.75,1.75,0,0,0,1.14-2.21,1.73,1.73,0,0,0-2.2-1.12h0a1.77,1.77,0,0,0-1.14,2.21A1.75,1.75,0,0,0,1429.12,565.25Zm25.71-1.86h0a1.73,1.73,0,0,0,2-1.43,1.76,1.76,0,0,0-1.42-2h0a1.76,1.76,0,0,0-.61,3.46Zm-16.8-.21h0a1.76,1.76,0,0,0-.53-3.47h0a1.76,1.76,0,0,0,.53,3.47Zm7.73-.56h0a1.75,1.75,0,0,0,0-3.5h0a1.75,1.75,0,0,0,0,3.5Z"/><path d="M1447.93,656.18h-7.29v-6.66c-8.69-.44-14.56-2.31-17.73-5.62a15.69,15.69,0,0,1-4.68-10.95v-.42h9.54V633a8.55,8.55,0,0,0,2.43,6.33c1.58,1.63,5.08,2.75,10.44,3.35v-23.1l-2.88-1q-10.15-3.69-13.55-7.8a15,15,0,0,1-3.39-9.85,16.72,16.72,0,0,1,2.09-8.32,16.42,16.42,0,0,1,6.33-6.23c2.76-1.63,6.55-2.71,11.4-3.24v-6.83h7.29v6.83q10.5.68,14.06,4.54a11.82,11.82,0,0,1,3.61,8.22v.43h-9.48v-.43a4.71,4.71,0,0,0-2-3.9,14,14,0,0,0-6.15-2.14V613.3l4,1.27a41.65,41.65,0,0,1,8.64,4.12,13.85,13.85,0,0,1,5.42,5.53,14.54,14.54,0,0,1,1.53,6.5,17.23,17.23,0,0,1-2.2,8.28,19.54,19.54,0,0,1-6.16,6.81q-4,2.75-11.18,3.71Zm-7.29-45.36V589.71c-3.83.61-6.55,1.93-8.24,4a10.55,10.55,0,0,0-2.54,6.92,7.94,7.94,0,0,0,1.92,5.32c1.3,1.45,3.61,2.89,7,4.3Zm7.29,11.13v20.5a12.83,12.83,0,0,0,6.21-2,9.68,9.68,0,0,0,3.11-3.81,11.12,11.12,0,0,0,1.07-4.8,7.78,7.78,0,0,0-1.86-5.29c-1.19-1.43-3.33-2.71-6.27-3.84Z"/><path class="cls-5" d="M409.37,1463.79H330.31c2.24,67-18.46,85.24,0,104.23H533.73C534.23,1493.67,429.63,1544.53,409.37,1463.79Z"/><path class="cls-4" d="M410.8,1463.42a1.44,1.44,0,0,0-1.43-1.13H330.31a1.5,1.5,0,0,0-1.49,1.55c1.3,40.1-5.59,62.69-7.33,78.42-1.25,11,0,18.85,7.76,26.81a1.48,1.48,0,0,0,1.06.46H533.73a1.46,1.46,0,0,0,1.49-1.5c.13-11.5-2.3-20.09-6.4-26.68-4.85-7.71-12.12-12.7-20.82-16.34-8.39-3.55-18.21-5.81-28.28-8.17C451.57,1510.29,420.8,1503.08,410.8,1463.42Zm-2.61,1.86c10.62,40.09,41.95,47.75,70.85,54.48,9.88,2.32,19.51,4.53,27.84,8,8.08,3.39,14.86,8,19.39,15.16,3.67,5.9,5.84,13.53,6,23.59H330.93c-6.59-7.08-7.52-14.13-6.46-23.93,1.74-15.62,8.51-38,7.39-77.32Z"/><path class="cls-4" d="M475.38,1477.48h-69.9c2,67-16.33,85.25,0,104.23H585.34C585.78,1507.37,493.29,1558.22,475.38,1477.48Z"/><path class="cls-4" d="M486.88,1477.11a1.44,1.44,0,0,0-1.43-1.13H406.39a1.52,1.52,0,0,0-1.49,1.55c1.3,40.1-5.59,62.69-7.33,78.42-1.25,11,0,18.85,7.76,26.81a1.48,1.48,0,0,0,1.06.46H609.81a1.46,1.46,0,0,0,1.49-1.5c.13-11.5-2.3-20.09-6.4-26.68-4.85-7.71-12.12-12.7-20.82-16.34-8.39-3.55-18.21-5.81-28.28-8.17C527.65,1524,496.88,1516.77,486.88,1477.11Zm-2.61,1.87c10.62,40.08,42,47.74,70.85,54.47,9.88,2.32,19.51,4.53,27.84,8,8.08,3.39,14.86,8,19.39,15.17,3.67,5.89,5.85,13.52,6,23.58H407c-6.59-7.08-7.52-14.12-6.46-23.93,1.74-15.62,8.51-38,7.4-77.31Z"/><path class="cls-5" d="M428.13,1029.4H309.9s30.63,131.16,30.63,199.45c0,72.4-30.63,234.91-30.63,234.91H428.13s30.63-158.86,30.63-231.26C458.76,1163,428.13,1029.4,428.13,1029.4Z"/><g class="cls-13"><path class="cls-4" d="M306.81,1057.08c10.07,6.5,18.16,17.12,25.86,26.05a208.61,208.61,0,0,1,37.5,62c35.37,92.59,40.85,167.93,43.7,194,.66,6-1.86,25.21,9.71,19.88,7.76-3.6,13.34-11.15,18.22-17.83,12.26-16.76,20.56-36.88,26.95-56.51,17.68-54.23,22.68-112.48,10.79-168.51-5.25-24.6-13.52-48.8-28.63-69.17C418.66,1003.6,307.05,994.72,306.81,1057.08Z"/></g><path class="cls-4" d="M429.6,1029.06a1.53,1.53,0,0,0-1.47-1.16H309.9a1.55,1.55,0,0,0-1.2.57,1.59,1.59,0,0,0-.28,1.27S339,1160.68,339,1228.85c0,72.32-30.61,234.66-30.61,234.66a1.5,1.5,0,0,0,1.48,1.78H428.13a1.5,1.5,0,0,0,1.47-1.23S460.26,1305,460.26,1232.5C460.26,1162.91,429.6,1029.06,429.6,1029.06Zm-2.67,1.84c3,13.23,30.33,136,30.33,201.6,0,68.62-27.55,215-30.36,229.78H311.7C315,1444.45,342,1296.89,342,1228.85c0-63.65-26.57-181.83-30.24-197.95Z"/><path class="cls-5" d="M504.21,1043.09H386s30.63,131.17,30.63,199.45c0,72.41-30.63,234.92-30.63,234.92H504.21s30.64-158.86,30.64-231.27C534.85,1176.72,504.21,1043.09,504.21,1043.09Z"/><path class="cls-4" d="M505.68,1042.76a1.52,1.52,0,0,0-1.47-1.17H386a1.57,1.57,0,0,0-1.2.57,1.59,1.59,0,0,0-.27,1.27s30.6,130.94,30.6,199.11c0,72.32-30.6,234.66-30.6,234.66a1.5,1.5,0,0,0,.3,1.24,1.59,1.59,0,0,0,1.17.55H504.21a1.49,1.49,0,0,0,1.47-1.23s30.67-159.08,30.67-231.57C536.35,1176.61,505.68,1042.76,505.68,1042.76Zm-2.66,1.83c3,13.23,30.32,136,30.32,201.6,0,68.63-27.54,215-30.35,229.78H387.79c3.31-17.82,30.33-165.39,30.33-233.43,0-63.64-26.58-181.83-30.25-198Z"/><path class="cls-5" d="M707.5,720.41a13,13,0,0,0-12.27-17.27H644.52a12.94,12.94,0,0,0-12.24,8.68c-6.3,17.92-20.79,59.28-29.07,82.85a13,13,0,0,0,12.24,17.26H666.2a13,13,0,0,0,12.23-8.68C684.69,785.34,699.22,744,707.5,720.41Z"/><path class="cls-4" d="M708.87,720.91a14.41,14.41,0,0,0-1.82-13.17,14.57,14.57,0,0,0-11.82-6.1H644.52a14.46,14.46,0,0,0-13.65,9.69c-6.3,17.91-20.79,59.27-29.07,82.84a14.48,14.48,0,0,0,13.65,19.26H666.2a14.45,14.45,0,0,0,13.64-9.68C686.14,785.84,700.64,744.48,708.87,720.91Zm-2.78-1c-8.28,23.57-22.78,64.93-29.07,82.85a11.5,11.5,0,0,1-10.82,7.68H615.49a11.5,11.5,0,0,1-10.86-15.28c8.27-23.57,22.77-64.93,29.07-82.84a11.45,11.45,0,0,1,10.82-7.68h50.71a11.46,11.46,0,0,1,9.36,4.84A11.58,11.58,0,0,1,706.09,719.91Z"/><path class="cls-5" d="M705.35,719.91a12,12,0,0,0-1.74-11.46,13.62,13.62,0,0,0-10.9-5.32H640.45a13.29,13.29,0,0,0-12.6,8.43c-6.49,17.41-21.43,57.61-30,80.51a12.11,12.11,0,0,0,1.71,11.47,13.66,13.66,0,0,0,10.9,5.31h52.29a13.34,13.34,0,0,0,12.61-8.43C681.85,783,696.83,742.82,705.35,719.91Z"/><path class="cls-4" d="M706.73,720.43a13.46,13.46,0,0,0-1.92-12.89,15.11,15.11,0,0,0-12.1-5.91H640.45a14.83,14.83,0,0,0-14,9.41c-6.49,17.41-21.43,57.61-29.95,80.51a13.66,13.66,0,0,0,1.91,12.89,15.19,15.19,0,0,0,12.11,5.91h52.29a14.86,14.86,0,0,0,14-9.41C683.26,783.53,698.24,743.34,706.73,720.43Zm-2.79-1c-8.53,22.9-23.46,63.1-30,80.51a11.83,11.83,0,0,1-11.2,7.46H610.54a12.19,12.19,0,0,1-9.74-4.72,10.54,10.54,0,0,1-1.49-10c8.52-22.9,23.46-63.09,30-80.5a11.8,11.8,0,0,1,11.19-7.46h52.26a12.17,12.17,0,0,1,9.73,4.71A10.63,10.63,0,0,1,703.94,719.39Z"/><path class="cls-4" d="M632.7,725.34h26.15a1.5,1.5,0,0,0,0-3H632.7a1.5,1.5,0,0,0,0,3Z"/><path class="cls-4" d="M630.11,738.54h45.52a1.5,1.5,0,0,0,0-3H630.11a1.5,1.5,0,0,0,0,3Z"/><path class="cls-4" d="M627.35,752h28.21a1.5,1.5,0,0,0,0-3H627.35a1.5,1.5,0,0,0,0,3Z"/><path class="cls-14" d="M511.52,881.94c15.42,15.39,59.55,55.11,98.55,47.67,49-9.36,87.69-109.34,87.69-109.34l-30.44-15.82s-21.44,56.28-65.16,55.09c-27.74-.76-74.78-84.55-112.89-98.69-36.38-13.5-88.9-22.89-115.63,13.88-34.16,47-72.63,267.14-72.63,267.14,80.58,34.79,159.88,27.3,217.86-1.86Z"/><g class="cls-15"><path class="cls-4" d="M540.21,921.43c-7.81-9.71-17.82-25.83-28.62-38.81-12.59-9-35.39-42.29-35.39-42.29s18.33,101.47,57.11,142.4Z"/></g><path class="cls-5" d="M458.79,683.15H420l-3.15,65.74c1.37,17.79,35.09,17.48,41.91,3.48Z"/><g class="cls-16"><path class="cls-4" d="M435.12,716c2.64.06,5.37,1.23,7.77,2.15A48.19,48.19,0,0,1,459,727.84a33.94,33.94,0,0,1,5.22,6.54c.48.7,1.31,2.4,2.33,2.36,1.74-.07,2.16-3.9,2.4-5a91.54,91.54,0,0,0,1.62-17.87c0-2.38-.12-4.78-.33-7.15a8.68,8.68,0,0,0-1.11-4.16c-1.41-1.95-4.37-2.22-6.56-2.33a55.67,55.67,0,0,0-16,1.71C441.84,703.1,438.66,712.51,435.12,716Z"/></g><path class="cls-4" d="M460.28,683.15a1.5,1.5,0,0,0-1.49-1.5H420a1.49,1.49,0,0,0-1.49,1.43l-3.15,65.74V749c.72,9.65,10.09,14.62,20.35,15,10.05.42,20.79-3.57,24.38-11a1.23,1.23,0,0,0,.16-.65Zm-3,1.5V752a14.65,14.65,0,0,1-6.06,5.77,30.24,30.24,0,0,1-15.38,3.27c-8.6-.36-16.8-4.1-17.44-12.17l3-64.23Z"/><path class="cls-5" d="M471.88,621.32l-59.28-3.16v82.18s54.65,22.55,65.6,0C492.5,670.92,471.88,621.32,471.88,621.32Z"/><path class="cls-4" d="M473.28,620.75a1.5,1.5,0,0,0-1.3-.92l-59.32-3.16a1.47,1.47,0,0,0-1.11.41,1.5,1.5,0,0,0-.45,1.08v82.18a1.5,1.5,0,0,0,.91,1.39s27.17,11.17,47.3,10.06c9.08-.51,16.74-3.55,20.26-10.79,5.83-12,6-27.33,4.07-41.39A176.92,176.92,0,0,0,473.28,620.75Zm-2.41,2a175.83,175.83,0,0,1,9.8,37.25c1.86,13.47,1.8,28.15-3.81,39.67-2,4.12-5.63,6.56-10.09,7.88-4.76,1.39-10.43,1.55-16.26,1-15.57-1.39-32.34-7.66-36.42-9.26V619.75l56.78,3Z"/><path class="cls-5" d="M697.77,748.88,684.9,786.07s.43-22.12-.19-25.86c-2.21-12.33-11.25-6.94-12.45,6.9-.67,7.84,0,38.65,0,38.65l21.68,12.09C711,797.31,720.26,754,697.77,748.88Z"/><path class="cls-4" d="M698.1,747.42a1.51,1.51,0,0,0-1.77,1l-9.81,28.4c.05-6.62,0-14.7-.38-16.84a13.23,13.23,0,0,0-2.3-6,4.77,4.77,0,0,0-4.21-2.12,7.15,7.15,0,0,0-4.92,3.15c-1.87,2.52-3.5,6.67-3.93,12-.67,7.88,0,38.81,0,38.81a1.45,1.45,0,0,0,.77,1.28l21.63,12.09a1.53,1.53,0,0,0,1.91-.36c10.43-12.57,18-33.51,17.47-49.38C712.12,758.28,707.77,749.63,698.1,747.42Zm.63,3.27c7.37,2.38,10.48,9.74,10.81,18.83.53,14.83-6.36,34.25-16,46.41l-19.81-11.06c-.1-5-.62-30.6,0-37.63.38-4.64,1.72-8.26,3.35-10.46a4.12,4.12,0,0,1,2.72-2,2,2,0,0,1,1.68,1,10.69,10.69,0,0,1,1.72,4.69c.62,3.7.19,25.56.19,25.56a1.47,1.47,0,0,0,2.87.52Z"/><path class="cls-4" d="M383.64,631a30.2,30.2,0,1,1,56.16-22.23,30.18,30.18,0,1,1,14.86,51.51v.58a29.93,29.93,0,0,1-1.66,9.92,43,43,0,1,1-84.3,11.91,42.05,42.05,0,0,1,2.83-15.34A19.33,19.33,0,0,1,380,630.66,19.52,19.52,0,0,1,383.64,631Z"/><path class="cls-4" d="M460.44,659.38a32.24,32.24,0,0,0,4.41.31,31.69,31.69,0,1,0-20.23-56.08,31.69,31.69,0,0,0-58.91,22.93h0c-.44,0-.93,0-1.37,0A20.83,20.83,0,0,0,374,665.39,44,44,0,0,0,371.5,680a44.5,44.5,0,1,0,87.37-11.87A31.34,31.34,0,0,0,460.44,659.38Zm-72.79-29.57a1.55,1.55,0,0,0,1.45-.52,1.45,1.45,0,0,0,.21-1.51,28.7,28.7,0,1,1,53.37-21.13,1.56,1.56,0,0,0,1.09.91,1.44,1.44,0,0,0,1.33-.37,28.69,28.69,0,1,1,14.17,48.95,1.56,1.56,0,0,0-1.29.32,1.62,1.62,0,0,0-.52,1.18v.55a29.11,29.11,0,0,1-1.58,9.43,1.42,1.42,0,0,0,0,.91A41.49,41.49,0,1,1,374.49,680a42,42,0,0,1,2.7-14.8,1.49,1.49,0,0,0-.72-1.88,17.84,17.84,0,0,1,7.87-33.85A17.36,17.36,0,0,1,387.65,629.81Z"/><path class="cls-4" d="M427.4,578.22c5.22,4.39,9.74,9.84,11.78,15.47,1.8,5.09,1.74,10.6,2,15.83a1.5,1.5,0,0,0,3-.14c-.27-5.52-.24-11.33-2.16-16.7-2.19-6.08-7-12-12.65-16.75a1.5,1.5,0,1,0-2,2.29Z"/><path class="cls-4" d="M444.84,575.08c2,6.53,2.76,13.57,1.38,19.39-1.28,5.25-4.35,9.83-7,14.33a1.5,1.5,0,0,0,2.58,1.53c2.8-4.77,6-9.61,7.34-15.16,1.5-6.28.71-13.89-1.41-20.94a1.51,1.51,0,0,0-1.88-1A1.49,1.49,0,0,0,444.84,575.08Z"/><ellipse class="cls-11" cx="459.75" cy="681.15" rx="7.28" ry="13.63" transform="translate(-157.23 138.31) rotate(-14.64)"/><path class="cls-4" d="M455.93,666.51c-2,.51-3.55,2.11-4.52,4.54-1.2,3.08-1.37,7.59-.14,12.31s3.59,8.57,6.15,10.68a7,7,0,0,0,6.15,1.74,6.9,6.9,0,0,0,4.51-4.53c1.23-3.09,1.41-7.6.18-12.32s-3.6-8.57-6.18-10.67a6.91,6.91,0,0,0-6.15-1.75Zm.75,2.9a4.06,4.06,0,0,1,3.5,1.17c2.2,1.78,4.13,5.09,5.18,9.1s1,7.85-.07,10.47a4,4,0,0,1-2.48,2.73,4,4,0,0,1-3.49-1.17c-2.18-1.78-4.1-5.09-5.15-9.1s-1-7.85,0-10.47a4.08,4.08,0,0,1,2.47-2.73Z"/><path class="cls-14" d="M1291.79,1554.32c-58.85,0-106.61-43.84-106.61-97.87s47.76-97.91,106.61-97.91c46.37,0,85.81,27.22,100.53,65.15,2-.15,4-.26,6.12-.26,28.59,0,53.27,15.5,64.6,37.81a57.08,57.08,0,0,1,23-4.79c29.4,0,53.3,21.94,53.3,48.93s-23.9,48.94-53.3,48.94Z"/><path class="cls-4" d="M1291.79,1556.07h194.3a55.06,55.06,0,1,0-22.19-105.47,73.09,73.09,0,0,0-65.46-40.62c-1.67,0-3.3.08-4.93.17a108.4,108.4,0,1,0-101.72,145.92Zm0-3.5a104.86,104.86,0,1,1,98.86-140,1.77,1.77,0,0,0,1.8,1.19q2.92-.26,6-.25a69.55,69.55,0,0,1,63,40.13,1.85,1.85,0,0,0,1,.9,1.76,1.76,0,0,0,1.35,0,50.88,50.88,0,0,1,22.27-5.06,51.56,51.56,0,0,1,0,103.11Z"/><path class="cls-4" d="M1282.23,1553.67c45.84,0,83-33.56,83-74.9s-37.2-74.93-83-74.93c-36.12,0-66.85,20.83-78.31,49.86-1.56-.12-3.15-.2-4.77-.2-22.27,0-41.49,11.86-50.32,28.94a46.17,46.17,0,0,0-25.64-3c-19.25,3.27-33.83,18.51-33.83,36.82,0,20.66,18.61,37.45,41.52,37.45Z"/><g class="cls-17"><path class="cls-5" d="M1257.91,1553.35c45.85,0,83-33.55,83-74.9s-37.2-74.92-83-74.92c-36.12,0-66.84,20.83-78.31,49.85-1.55-.11-3.14-.2-4.76-.2-22.27,0-41.49,11.86-50.32,28.94a45.12,45.12,0,0,0-18-3.67c-22.91,0-41.53,16.79-41.53,37.45s18.62,37.45,41.53,37.45Z"/></g><path class="cls-4" d="M1282.23,1555.41A84.81,84.81,0,1,0,1202.74,1441c-1.17-.1-2.38-.13-3.59-.13a57.34,57.34,0,0,0-51.15,31.51,43.29,43.29,0,1,0-17.12,83.05Zm0-3.5H1130.88a39.78,39.78,0,1,1,17.19-75.64,1.83,1.83,0,0,0,1.36.07,1.74,1.74,0,0,0,1-.93,53.81,53.81,0,0,1,48.73-31c1.56,0,3.11.06,4.64.19a1.8,1.8,0,0,0,1.81-1.18,81.31,81.31,0,1,1,76.63,108.52Z"/></g></svg>