<?xml version="1.0" ?><svg data-name="Layer 1" id="Layer_1" viewBox="0 0 2000 2000" xmlns="http://www.w3.org/2000/svg" xmlns:xlink="http://www.w3.org/1999/xlink"><defs><style>.cls-1{fill:none;}.cls-2,.cls-3,.cls-5,.cls-8,.cls-9{fill-rule:evenodd;}.cls-3,.cls-4{fill:#e6e6e6;}.cls-10,.cls-5{fill:#fff;}.cls-6{clip-path:url(#clip-path);}.cls-7{clip-path:url(#clip-path-2);}.cls-8{fill:#ffa41b;}.cls-9{fill:#00eefa;}.cls-11{clip-path:url(#clip-path-3);}.cls-12{clip-path:url(#clip-path-4);}.cls-13{clip-path:url(#clip-path-5);}</style><clipPath id="clip-path"><path class="cls-1" d="M1812.58,1012.52c-107.92,89.85-48.62,52.2-51.6,183.69-.62,27.44-41.3,41.94-65.79,60.82-28.7,22.12,4.92,60,1.29,97.38-6,61.32-60.33,106.8-123.68,88.3-68.78-20.11-77.58-71.43-14.28-145.49,35-40.92-15.71-58.47-2.62-101.83,17.85-59.21,77.06-55.35,108.36-115.44C1731,951.93,1846.18,984.56,1812.58,1012.52Z"/></clipPath><clipPath id="clip-path-2"><path class="cls-1" d="M1030.63,982.45a45.24,45.24,0,0,1,14.9-33.2,53.12,53.12,0,0,1,36-13.75h397.81v514.44H1081.53a53.17,53.17,0,0,1-36-13.75,45.27,45.27,0,0,1-14.9-33.22Z"/></clipPath><clipPath id="clip-path-3"><polygon class="cls-1" points="662.66 1079.37 479.54 1079.37 326.48 1452.92 509.6 1452.92 662.66 1079.37"/></clipPath><clipPath id="clip-path-4"><path class="cls-1" d="M691.71,856.32c-18.09-37.18-76.41-65.44-103.92-37.52-36.6,37.17-115.74,260.56-115.74,260.56H714.46S712.83,899.75,691.71,856.32Z"/></clipPath><clipPath id="clip-path-5"><path class="cls-1" d="M677.48,776.93l-40.64-12.46-19,43c8.57,27.8,78,41.1,47.8,17.66Z"/></clipPath></defs><g data-name=" 6-NFT-Art-File" id="_6-NFT-Art-File"><path class="cls-2" d="M264.55,1454.2l1390.27-3a1.3,1.3,0,0,0,1.28-1.28,1.28,1.28,0,0,0-1.28-1.28l-1390.3,3a1.3,1.3,0,0,0-1.28,1.28A1.32,1.32,0,0,0,264.55,1454.2Z"/><path class="cls-2" d="M120.35,1454.45l116.07-.23a1.31,1.31,0,0,0,1.28-1.31,1.26,1.26,0,0,0-1.28-1.26l-116.09.23a1.29,1.29,0,1,0,0,2.57Z"/><path class="cls-2" d="M236.43,1474.63l116.07-.23a1.3,1.3,0,0,0,1.28-1.31,1.26,1.26,0,0,0-1.28-1.25l-116.09.23a1.28,1.28,0,1,0,0,2.56Z"/><path class="cls-2" d="M1739.07,1472.32l-116.1-.24a1.27,1.27,0,0,0-1.28,1.26,1.32,1.32,0,0,0,1.28,1.31l116.07.23a1.28,1.28,0,1,0,0-2.56Z"/><path class="cls-2" d="M333.27,1495.51l71.65-.15a1.25,1.25,0,0,0,1.26-1.28,1.29,1.29,0,0,0-1.28-1.29l-71.65.16a1.28,1.28,0,1,0,0,2.56Z"/><path class="cls-2" d="M1642.22,1493.2l-71.65-.16a1.29,1.29,0,0,0-1.28,1.29,1.26,1.26,0,0,0,1.26,1.28l71.65.15a1.28,1.28,0,1,0,0-2.56Z"/><path class="cls-3" d="M353,1452.91c-53.47-72.26-21.76-132.15,65.65-161.43,86.27-28.89,175.19,2.28,263-1,34.69-1.28,70.44-7.91,102.11-22.55,53.71-24.85,85.37-70.51,119.86-116.17,22.94-30.39,54.74-65.36,96-65.69,72.16-.57,111.47,87.17,150,135,65.59,81.35,167.08,122.69,269.19,89.07,91.12-30,140.57-108.51,161.74-198.21C1592.36,1062,1599.62,972,1651,944c32-17.45,59.4,15.47,71.7,41.65,24.68,52.54,6.77,118.25-18.74,166.82-22.4,42.68-61.35,96.54-43,147.18,8.73,24.15,62,59.77,58.95,77.75-4.29,25.31-41.5,20.46-59.38,21.82-25,1.87-40,24-42.09,47.47Z"/><circle class="cls-4" cx="641.71" cy="1079.37" r="185.69"/><path class="cls-5" d="M1812.58,1012.52c-107.92,89.85-48.62,52.2-51.6,183.69-.62,27.44-41.3,41.94-65.79,60.82-28.7,22.12,4.92,60,1.29,97.38-6,61.32-60.33,106.8-123.68,88.3-68.78-20.11-77.58-71.43-14.28-145.49,35-40.92-15.71-58.47-2.62-101.83,17.85-59.21,77.06-55.35,108.36-115.44C1731,951.93,1846.18,984.56,1812.58,1012.52Z"/><g class="cls-6"><path class="cls-2" d="M1776.9,1127.61c-16.55,32-47.55,44.67-82.35,45.78-26.33.83-54.38-6.81-77,11.07a65.09,65.09,0,0,0-11.39,11.65c-14.45,19-25.61,45.18-28.66,68.83-1.9,14.58,1.66,30.67,18.29,33.8a52.48,52.48,0,0,0,16.07.13c15.65-2,30.56-8.85,44.39-16.13,19.89-10.44,84.28-36.4,111.78-76.91C1784.83,1181.11,1767.81,1137.81,1776.9,1127.61Z"/></g><path class="cls-2" d="M1813.41,1013.5c5.54-4.61,7.25-9.41,6.15-13.64s-5-7.91-11.09-10.49c-8.13-3.4-20.29-4.82-34.62-2.61-33,5.07-77.77,29.36-110.73,92.6-15.52,29.81-38,43.73-58.79,57.56-21.19,14.11-40.62,28.14-49.66,58.09-6.64,22,2.8,37.55,9.57,52.74,3.24,7.27,5.86,14.45,5.5,22.32s-3.7,16.37-12.2,26.31c-19.11,22.35-31.68,42.69-38.06,60.7-6.47,18.25-6.59,34.17-.83,47.57,7.68,17.76,25.82,31.11,53.79,39.29,64.17,18.76,119.25-27.27,125.32-89.4,1.83-18.83-5.69-37.8-10.08-54.83-4.23-16.39-5.6-31,8.28-41.66,14.73-11.36,35.25-21.1,49.47-33,9.78-8.22,16.58-17.45,16.84-28.79,1.18-52.76-7.61-78.39-11.67-95.91-1.77-7.64-2.64-13.69-1.25-19.81s5.05-12.38,12.21-20.39c9.78-10.94,26-25.12,51.85-46.63Zm-1.65-2c-26,21.62-42.28,35.88-52.12,46.9-7.54,8.43-11.34,15-12.8,21.52s-.62,12.9,1.27,21c4,17.41,12.78,42.86,11.58,95.29-.23,10.62-6.76,19.18-15.91,26.87-14.18,11.88-34.69,21.63-49.38,33s-13.72,26.88-9.2,44.32c4.32,16.77,11.81,35.44,10,54-5.9,60.51-59.51,105.44-122,87.17-27.05-7.93-44.74-20.65-52.16-37.84-5.53-12.88-5.31-28.18.89-45.7,6.32-17.79,18.74-37.82,37.62-59.9,9-10.52,12.41-19.55,12.79-27.84s-2.3-15.85-5.72-23.5c-6.54-14.69-15.89-29.63-9.46-51,8.83-29.27,27.92-42.9,48.63-56.69,21.11-14.06,43.87-28.24,59.65-58.51,32.43-62.23,76.34-86.26,108.84-91.26,13.75-2.11,25.43-.82,33.24,2.45,5.22,2.19,8.68,5.22,9.6,8.76s-.78,7.26-5.32,11Z"/><path class="cls-2" d="M1757.57,1023.26c-52.73,42.38-91.27,104.9-113.23,168.22-12.91,37.24-18.84,76.53-32.1,113.76-11.47,32.23-26.84,62.58-34.86,96-3,12.63-6.6,26.44-5.9,39.56a1.33,1.33,0,0,0,1.37,1.23,1.28,1.28,0,0,0,1.2-1.35c-.7-12.9,2.84-26.45,5.83-38.82,8-33.36,23.34-63.63,34.78-95.77,13.27-37.24,19.19-76.53,32.11-113.77,21.82-62.88,60.06-125,112.41-167.08a1.26,1.26,0,0,0,.2-1.8A1.29,1.29,0,0,0,1757.57,1023.26Z"/><path class="cls-2" d="M1745.33,1138.8c-13,4.91-25.22,15.19-36.26,23.3-29.9,21.93-58.19,49.93-79.14,80.67a1.26,1.26,0,0,0,.34,1.79,1.28,1.28,0,0,0,1.77-.34c20.79-30.52,48.88-58.29,78.56-80,10.86-8,22.84-18.14,35.63-23a1.28,1.28,0,1,0-.9-2.4Z"/><path class="cls-2" d="M1578.87,1186.94c5.93,7.72,9.08,18.86,13,27.66,11,24.92,19.8,51.29,24,78.26a1.29,1.29,0,0,0,2.55-.42c-4.29-27.17-13.18-53.75-24.26-78.88-4-9-7.2-20.31-13.25-28.17a1.28,1.28,0,1,0-2,1.55Z"/><path class="cls-2" d="M1662.79,1315.77c-30.73,21.41-62.57,46.39-83.08,78.33a1.3,1.3,0,0,0,.38,1.79,1.27,1.27,0,0,0,1.77-.39c20.34-31.68,52-56.41,82.41-77.64a1.28,1.28,0,1,0-1.48-2.09Z"/><path class="cls-2" d="M1676.61,1071.73c2.67,14.51,5.29,29.58,2.48,44.25a1.29,1.29,0,0,0,2.54.49c2.85-15,.22-30.38-2.51-45.21a1.28,1.28,0,0,0-2.51.47Z"/><path class="cls-5" d="M1870.92,1178.66c-111.56,28-54.42,21.27-103.31,117.28-10.19,20-45.37,16.29-70.15,21.54-29,6.14-17.68,46.06-33.62,72.34-26.18,43.14-82.44,57.42-122.64,21.27-43.63-39.26-31.91-80.27,41.11-112.47,40.33-17.79,9.16-48.73,34.21-76.09,34.2-37.37,76.53-13.5,121-46.75C1832.19,1105,1905.64,1170,1870.92,1178.66Z"/><path class="cls-2" d="M1871.23,1179.9c5.85-1.46,8.85-4.48,9.56-8.06s-.84-7.73-4.52-11.88c-4.82-5.43-13.33-10.81-24.73-14.29-26.23-8-68-6-114.81,29.09-22,16.46-43.52,18.74-63.74,21.57-20.69,2.9-40.07,6.37-57.41,25.32-12.79,14-11.33,28.83-11.72,42.48-.18,6.49-.8,12.69-3.84,18.33s-8.48,10.69-18.22,15c-22.08,9.74-38.6,20.29-49.72,31.34-11.31,11.24-17.08,23-17.57,35-.65,15.9,8,32.25,25.83,48.28,40.83,36.73,98,22.26,124.59-21.56,8-13.26,9.26-30,12.07-44.13,2.67-13.5,6.78-24.68,20.72-27.63,14.89-3.15,33.52-3.06,48.24-6.82,10.21-2.61,18.55-7.05,22.8-15.39,19.63-38.56,22.23-60.61,25.46-75,1.4-6.22,2.88-11,6.06-15s8.07-7.28,16.16-10.64c11.1-4.6,28.1-9.31,54.79-16Zm-.62-2.48c-26.87,6.74-44,11.47-55.15,16.11-8.63,3.58-13.79,7.13-17.19,11.43s-5.06,9.33-6.56,16c-3.19,14.26-5.77,36.15-25.24,74.39-3.92,7.7-11.72,11.66-21.15,14.06-14.68,3.74-33.27,3.66-48.13,6.8-15.08,3.19-19.81,15-22.71,29.63-2.75,13.89-3.85,30.31-11.74,43.31-25.76,42.45-81.12,56.56-120.68,21-17.09-15.39-25.62-31-25-46.28.47-11.4,6.05-22.57,16.81-33.26,10.94-10.86,27.21-21.22,48.94-30.8,10.42-4.6,16.2-10.08,19.45-16.12s4-12.58,4.15-19.48c.37-13.1-1.22-27.41,11-40.82,16.86-18.41,35.75-21.68,55.88-24.51,20.6-2.88,42.48-5.28,64.91-22,46-34.37,86.81-36.53,112.53-28.69,10.85,3.3,19,8.37,23.55,13.53,3,3.41,4.51,6.8,3.93,9.67s-3.09,4.94-7.66,6.09Z"/><path class="cls-2" d="M1740.82,1204c5.29-9,8.22-19.31,11-29.33a1.29,1.29,0,0,0-2.49-.68c-3.18,11.63-6.57,23.67-13.83,33.48,0,0,0,.06,0,.08a345.29,345.29,0,0,0-52.38,43.29c-19.11,19.25-35.13,41.31-53.4,61.41,5.65-20.38,8.24-41.69,8.93-62.76.26-8,1.88-17.59.21-25.56a1.29,1.29,0,0,0-2.52.53c1.65,7.77,0,17.09-.25,25-.75,22.28-3.6,44.85-10,66.25a1.32,1.32,0,0,0,0,.56q-3.43,3.66-7,7.19c-19.92,19.73-42,36.7-59.85,58.53-6.72,8.24-14.26,17.2-18.42,27.15a1.3,1.3,0,1,0,2.39,1c4-9.75,11.44-18.47,18-26.53,1.05-1.28,2.1-2.51,3.16-3.77a1.15,1.15,0,0,0,.54-.18c26.22-16.12,58.3-23.15,88.3-28a1.29,1.29,0,0,0,1.05-1.47,1.26,1.26,0,0,0-1.46-1.05c-28,4.52-57.87,11-83.17,24.84,16-17.35,34.44-32,51.24-48.68,12.53-12.39,23.66-26,34.88-39.54,26.12-15.08,56.66-25.59,86.22-31.11,10.83-2,23.25-5.27,34.39-4.3a1.28,1.28,0,0,0,.23-2.55c-11.37-1-24,2.26-35.11,4.33-27.66,5.17-56.14,14.66-81.16,28.15,7.9-9.47,16-18.81,24.66-27.57,38.39-38.64,88.61-70.88,142.16-83.35a1.28,1.28,0,1,0-.56-2.5C1796.38,1173.83,1767.33,1187,1740.82,1204Z"/><path class="cls-2" d="M1030.63,982.45a45.24,45.24,0,0,1,14.9-33.2,53.12,53.12,0,0,1,36-13.75h397.81v514.44H1081.53a53.17,53.17,0,0,1-36-13.75,45.27,45.27,0,0,1-14.9-33.22Z"/><g class="cls-7"><path class="cls-5" d="M1096.27,982.45a45.24,45.24,0,0,1,14.9-33.2,53.12,53.12,0,0,1,36-13.75H1545v514.44H1147.17a53.17,53.17,0,0,1-36-13.75,45.27,45.27,0,0,1-14.9-33.22Z"/></g><path class="cls-2" d="M1054.16,960.28v440.46a50.46,50.46,0,0,0,50.47,50.48h384.52a1.28,1.28,0,0,0,1.28-1.28V911.09a1.29,1.29,0,0,0-1.28-1.28H1104.63a50.46,50.46,0,0,0-50.47,50.47Zm2.56,0a47.9,47.9,0,0,1,47.91-47.9h383.24v536.28H1104.63a47.94,47.94,0,0,1-47.91-47.92Z"/><path class="cls-8" d="M1415.77,975.76A34.15,34.15,0,0,0,1409,928l-157.65-118.7a34.15,34.15,0,0,0-47.82,6.73l-65.18,86.57a34.14,34.14,0,0,0,6.75,47.81l157.64,118.71a34.14,34.14,0,0,0,47.8-6.75Z"/><path class="cls-2" d="M1437.93,972.87a35.41,35.41,0,0,0-7-49.6L1273.3,804.57a35.43,35.43,0,0,0-49.62,7l-65.18,86.57a35.42,35.42,0,0,0,7,49.61l157.65,118.7a35.4,35.4,0,0,0,49.59-7Zm-2-1.54-65.19,86.57a32.84,32.84,0,0,1-46,6.48l-157.64-118.7a32.86,32.86,0,0,1-6.5-46l65.18-86.57a32.89,32.89,0,0,1,46-6.47l157.64,118.7A32.86,32.86,0,0,1,1435.88,971.33Z"/><path class="cls-5" d="M1331.49,971.46a10.75,10.75,0,0,1-11.56,15.36c-25.07-4.62-66.39-12.21-89.54-16.46a10.76,10.76,0,0,1-6.65-17l49-65a10.75,10.75,0,0,1,18.21,1.67Z"/><path class="cls-2" d="M1336.2,950.63c-11.36-22.81-30.07-60.42-40.56-81.5a12,12,0,0,0-20.38-1.88l-49,65a12,12,0,0,0,7.43,19.06c23.14,4.28,64.46,11.87,89.54,16.46a12,12,0,0,0,12.94-17.19Zm-2.3,1.16a9.45,9.45,0,0,1-10.18,13.51l-89.54-16.45a9.46,9.46,0,0,1-5.84-15l49-65.05a9.46,9.46,0,0,1,16,1.47Z"/><path class="cls-5" d="M1355.54,989.4a54.85,54.85,0,0,0,41.06-18.48c19.33-21.84,51.3-57.94,70.65-79.77a54.81,54.81,0,0,1,41.06-18.48h41.92a54.87,54.87,0,0,1,54.85,54.84v467.57a54.9,54.9,0,0,1-54.85,54.86H1169.85a54.85,54.85,0,0,1-54.83-54.86V1044.24a54.83,54.83,0,0,1,54.83-54.84Z"/><path class="cls-5" d="M1314,990.68a54.85,54.85,0,0,0,41.06-18.48c19.33-21.83,51.3-57.94,70.65-79.77A54.85,54.85,0,0,1,1466.76,874h41.92a54.87,54.87,0,0,1,54.85,54.84v467.57a54.88,54.88,0,0,1-54.85,54.86H1128.3a54.85,54.85,0,0,1-54.83-54.86V1045.52a54.83,54.83,0,0,1,54.83-54.84Z"/><path class="cls-2" d="M1355.54,988.12H1169.85a56.11,56.11,0,0,0-56.12,56.12v350.84a56.11,56.11,0,0,0,56.12,56.13h380.38a56.13,56.13,0,0,0,56.11-56.13V927.51a56.13,56.13,0,0,0-56.11-56.13h-41.92a56.09,56.09,0,0,0-42,18.92c-19.35,21.83-51.32,57.93-70.64,79.76A53.55,53.55,0,0,1,1355.54,988.12Zm0,2.56a56.06,56.06,0,0,0,42-18.91L1468.2,892a53.56,53.56,0,0,1,40.11-18h41.92a53.59,53.59,0,0,1,53.56,53.56v467.57a53.62,53.62,0,0,1-53.56,53.58H1169.85a53.57,53.57,0,0,1-53.57-53.58V1044.24a53.59,53.59,0,0,1,53.57-53.56Z"/><path class="cls-9" d="M1195.84,1266.32a28.85,28.85,0,0,1,28.84-28.86h245.09a28.88,28.88,0,0,1,28.87,28.86v73.42a28.82,28.82,0,0,1-28.87,28.83H1224.68a28.78,28.78,0,0,1-28.84-28.83Z"/><path class="cls-2" d="M1202.07,1252.89v73.43a30.13,30.13,0,0,0,30.13,30.13h245.09a30.13,30.13,0,0,0,30.16-30.13v-73.43a30.13,30.13,0,0,0-30.16-30.13H1232.2a30.13,30.13,0,0,0-30.13,30.13Zm2.57,0a27.55,27.55,0,0,1,27.56-27.57h245.09a27.59,27.59,0,0,1,27.59,27.57v73.43a27.57,27.57,0,0,1-27.59,27.55H1232.2a27.54,27.54,0,0,1-27.56-27.55Z"/><path d="M1248.52,1252.92h13L1303.2,1305h.28v-52.12h13.9v73.3h-13.14l-41.53-52.07h-.28v52.07h-13.91Z"/><path d="M1330.66,1252.92h58.74v10.52h-44.83v21.62h38.21v9.86h-38.21v31.3h-13.91Z"/><path d="M1421.81,1262.83h-25.16v-9.91H1461v9.91h-25.16v63.39h-14Z"/><path class="cls-8" d="M1555.29,504.24l133,76.77V734.55l-133,76.76-133-76.76V581Z"/><path class="cls-2" d="M1527.6,518.58a1.31,1.31,0,0,0-1.3,0l-132.94,76.77a1.27,1.27,0,0,0-.66,1.11V750a1.28,1.28,0,0,0,.66,1.11l132.94,76.77a1.36,1.36,0,0,0,1.3,0l133-76.77a1.25,1.25,0,0,0,.63-1.11V596.46a1.24,1.24,0,0,0-.63-1.11Zm-.64,2.59,131.67,76v152l-131.67,76-131.7-76v-152Z"/><path class="cls-2" d="M1747.89,843.72v3.53a1.28,1.28,0,1,0,2.56,0v-3.53a1.28,1.28,0,1,0-2.56,0Zm0-15.56v3.53a1.28,1.28,0,1,0,2.56,0v-3.53a1.28,1.28,0,1,0-2.56,0Zm0-15.55v3.53a1.28,1.28,0,1,0,2.56,0v-3.53a1.28,1.28,0,1,0-2.56,0Zm0-15.56v3.53a1.28,1.28,0,1,0,2.56,0v-3.53a1.28,1.28,0,1,0-2.56,0Zm0-15.56V785a1.28,1.28,0,1,0,2.56,0v-3.53a1.28,1.28,0,1,0-2.56,0Zm0-15.55v3.52a1.28,1.28,0,1,0,2.56,0v-3.52a1.28,1.28,0,1,0-2.56,0Zm0-15.56v3.53a1.28,1.28,0,1,0,2.56,0v-3.53a1.28,1.28,0,1,0-2.56,0Zm0-15.56v3.53a1.28,1.28,0,1,0,2.56,0v-3.53a1.28,1.28,0,1,0-2.56,0Zm0-15.56v3.53a1.28,1.28,0,1,0,2.56,0v-3.53a1.28,1.28,0,1,0-2.56,0Zm0-15.55v3.52a1.28,1.28,0,1,0,2.56,0v-3.52a1.28,1.28,0,1,0-2.56,0ZM1736.82,696c1.08.63,2.12,1.21,3.07,1.76a1.28,1.28,0,1,0,1.26-2.22l-3-1.76a1.29,1.29,0,1,0-1.3,2.22Zm-13.46-7.78,3.06,1.77a1.28,1.28,0,0,0,1.27-2.23c-1-.57-2-1.16-3.07-1.76a1.28,1.28,0,0,0-1.74.47A1.3,1.3,0,0,0,1723.36,688.24Zm-13.47-7.78,3,1.77a1.29,1.29,0,1,0,1.3-2.23l-3.07-1.76a1.28,1.28,0,1,0-1.26,2.22Zm-13.47-7.77c1,.59,2,1.18,3,1.76a1.28,1.28,0,1,0,1.29-2.22l-3.06-1.77a1.28,1.28,0,0,0-1.27,2.23Zm-13.5-7.78c1,.58,2.06,1.17,3.07,1.76a1.3,1.3,0,0,0,1.77-.47,1.29,1.29,0,0,0-.48-1.75l-3.06-1.77a1.29,1.29,0,0,0-1.3,2.23Zm-13.47-7.78c1,.58,2.06,1.17,3.07,1.76a1.29,1.29,0,0,0,1.3-2.22c-1-.59-2.06-1.18-3.07-1.76a1.29,1.29,0,1,0-1.3,2.22ZM1656,649.35l3.06,1.76a1.27,1.27,0,0,0,1.74-.46,1.28,1.28,0,0,0-.47-1.76l-3-1.76a1.29,1.29,0,0,0-1.77.47A1.31,1.31,0,0,0,1656,649.35Zm-13.47-7.78q1.51.87,3,1.77a1.3,1.3,0,0,0,1.77-.47,1.28,1.28,0,0,0-.47-1.76c-1-.6-2-1.18-3-1.76a1.29,1.29,0,1,0-1.3,2.22Zm-13.47-7.78c1,.56,2,1.16,3,1.77a1.29,1.29,0,1,0,1.29-2.23l-3.06-1.76a1.28,1.28,0,0,0-1.27,2.22ZM1615.58,626h0l3.07,1.76a1.31,1.31,0,0,0,1.77-.47,1.29,1.29,0,0,0-.47-1.75c-1.77-1-2.85-1.64-3-1.75-1.42-.82-.66,2.38-.66,2.38-.73-2.57-1.3-2-1.3-1.29A1.26,1.26,0,0,0,1615.58,626Z"/><path class="cls-2" d="M1695.07,917.62v3.53a1.28,1.28,0,1,0,2.56,0v-3.53a1.28,1.28,0,1,0-2.56,0Zm0-15.55v3.52a1.28,1.28,0,1,0,2.56,0v-3.52a1.28,1.28,0,1,0-2.56,0Zm0-15.56V890a1.28,1.28,0,1,0,2.56,0v-3.53a1.28,1.28,0,1,0-2.56,0Zm0-15.56v3.53a1.28,1.28,0,1,0,2.56,0V871a1.28,1.28,0,1,0-2.56,0Zm0-15.55v3.52a1.28,1.28,0,1,0,2.56,0V855.4a1.28,1.28,0,1,0-2.56,0Zm0-15.57v3.54a1.28,1.28,0,1,0,2.56,0v-3.54a1.28,1.28,0,1,0-2.56,0Zm0-15.55v3.53a1.28,1.28,0,1,0,2.56,0v-3.53a1.28,1.28,0,1,0-2.56,0Zm0-15.56v3.53a1.28,1.28,0,1,0,2.56,0v-3.53a1.28,1.28,0,1,0-2.56,0Zm0-15.56v3.53a1.28,1.28,0,1,0,2.56,0v-3.53a1.28,1.28,0,1,0-2.56,0Zm0-15.55v3.52a1.28,1.28,0,1,0,2.56,0v-3.52a1.28,1.28,0,1,0-2.56,0Zm-7.12-10,3.07,1.76a1.27,1.27,0,0,0,1.74-.46,1.28,1.28,0,0,0-.47-1.76l-3-1.76a1.29,1.29,0,1,0-1.3,2.22Zm-13.46-7.78,3.06,1.77a1.28,1.28,0,0,0,1.27-2.23l-3-1.76a1.28,1.28,0,1,0-1.29,2.22ZM1661,752.08l3,1.77a1.29,1.29,0,1,0,1.3-2.23c-1-.58-2-1.17-3.07-1.76a1.28,1.28,0,0,0-1.26,2.22Zm-13.47-7.78c1,.59,2,1.17,3,1.77a1.28,1.28,0,1,0,1.29-2.22l-3.06-1.77a1.28,1.28,0,0,0-1.27,2.22Zm-13.5-7.78c1,.57,2,1.16,3.07,1.77a1.32,1.32,0,0,0,1.77-.47,1.3,1.3,0,0,0-.47-1.75c-1.08-.61-2.09-1.2-3.07-1.77a1.28,1.28,0,0,0-1.74.47A1.26,1.26,0,0,0,1634.05,736.52Zm-13.46-7.77h0l3.06,1.76a1.29,1.29,0,0,0,1.3-2.22c-1.77-1-2.85-1.63-3-1.75-1.42-.82-.69,2.38-.69,2.38-.7-2.57-1.27-2-1.27-1.28A1.29,1.29,0,0,0,1620.59,728.75Z"/><path class="cls-5" d="M1500.64,555.64l110.71,63.92V747.4l-110.71,63.91L1389.93,747.4V619.56Z"/><path class="cls-2" d="M1476.21,570a1.34,1.34,0,0,0-1.29,0l-110.71,63.92a1.29,1.29,0,0,0-.64,1.12V762.84a1.29,1.29,0,0,0,.64,1.12l110.71,63.92a1.29,1.29,0,0,0,1.29,0L1586.92,764a1.33,1.33,0,0,0,.66-1.12V635a1.33,1.33,0,0,0-.66-1.12Zm-.64,2.6L1585,635.75V762.1l-109.43,63.18L1366.15,762.1V635.75Z"/><path d="M1379,659.19V656l3-2.18h3v21.06h-3V657Z"/><path d="M1393.24,659.19V656l3-2.18h3v21.06h-3V657Z"/><path d="M1414.75,659.87c-.06-2.11-1-3.18-3-3.22s-2.9,1.11-2.94,3.22v8.92q.06,3.19,2.94,3.23c1.93,0,2.91-1.1,3-3.23Zm-8.92-.19a5.59,5.59,0,0,1,1.86-4.49,5.89,5.89,0,0,1,4.09-1.56,6,6,0,0,1,4.18,1.56,5.89,5.89,0,0,1,1.8,4.49V669a5.88,5.88,0,0,1-1.8,4.48,6,6,0,0,1-4.18,1.58,6,6,0,0,1-4.09-1.58,5.59,5.59,0,0,1-1.86-4.48Z"/><path d="M1428.94,659.87c0-2.11-1-3.18-3-3.22s-2.92,1.11-2.94,3.22v8.92c0,2.13,1,3.21,2.94,3.23s2.9-1.1,3-3.23Zm-8.93-.19a5.73,5.73,0,0,1,1.87-4.49,5.89,5.89,0,0,1,4.11-1.56,6,6,0,0,1,4.16,1.56,5.9,5.9,0,0,1,1.82,4.49V669a5.9,5.9,0,0,1-1.82,4.48A6,6,0,0,1,1426,675a6,6,0,0,1-4.11-1.58A5.72,5.72,0,0,1,1420,669Z"/><path d="M1443.15,659.87c-.07-2.11-1-3.18-3-3.22s-2.9,1.11-3,3.22v8.92c0,2.13,1,3.21,3,3.23s2.9-1.1,3-3.23Zm-8.93-.19a5.66,5.66,0,0,1,1.86-4.49,5.91,5.91,0,0,1,4.1-1.56,6,6,0,0,1,4.18,1.56,5.85,5.85,0,0,1,1.8,4.49V669a5.85,5.85,0,0,1-1.8,4.48,6.07,6.07,0,0,1-4.18,1.58,6,6,0,0,1-4.1-1.58,5.65,5.65,0,0,1-1.86-4.48Z"/><path d="M1457.35,659.87c-.06-2.11-1.06-3.18-3-3.22s-2.91,1.11-3,3.22v8.92q.06,3.19,3,3.23c1.9,0,2.9-1.1,3-3.23Zm-8.94-.19a5.72,5.72,0,0,1,1.86-4.49,6,6,0,0,1,4.12-1.56,5.74,5.74,0,0,1,6,6V669a6,6,0,0,1-1.79,4.48,6.1,6.1,0,0,1-4.18,1.58,6,6,0,0,1-4.12-1.58,5.71,5.71,0,0,1-1.86-4.48Z"/><path d="M1464.24,659.19V656l3-2.18h3v21.06h-3V657Z"/><path d="M1478.43,659.19V656l3-2.18h3v21.06h-3V657Z"/><path d="M1492.63,659.19V656l3-2.18h3v21.06h-3V657Z"/><path d="M1514.14,659.87c-.06-2.11-1-3.18-3-3.22s-2.9,1.11-2.94,3.22v8.92q.06,3.19,2.94,3.23c1.93,0,2.91-1.1,3-3.23Zm-8.92-.19a5.66,5.66,0,0,1,1.86-4.49,5.89,5.89,0,0,1,4.09-1.56,6,6,0,0,1,4.18,1.56,5.82,5.82,0,0,1,1.8,4.49V669a5.81,5.81,0,0,1-1.8,4.48,6,6,0,0,1-4.18,1.58,6,6,0,0,1-4.09-1.58,5.65,5.65,0,0,1-1.86-4.48Z"/><path d="M1528.35,659.87q-.11-3.17-3-3.22c-1.93,0-2.9,1.11-2.94,3.22v8.92c0,2.13,1,3.21,2.94,3.23s2.9-1.1,3-3.23Zm-8.92-.19a5.56,5.56,0,0,1,1.86-4.49,5.82,5.82,0,0,1,4.09-1.56,6,6,0,0,1,4.18,1.56,5.89,5.89,0,0,1,1.8,4.49V669a5.88,5.88,0,0,1-1.8,4.48,6.09,6.09,0,0,1-4.18,1.58,5.88,5.88,0,0,1-4.09-1.58,5.56,5.56,0,0,1-1.86-4.48Z"/><path d="M1542.54,659.87q-.07-3.17-3-3.22c-1.91,0-2.9,1.11-2.93,3.22v8.92c0,2.13,1,3.21,2.93,3.23s2.92-1.1,3-3.23Zm-8.93-.19a5.7,5.7,0,0,1,1.87-4.49,5.87,5.87,0,0,1,4.09-1.56,6,6,0,0,1,4.18,1.56,5.94,5.94,0,0,1,1.82,4.49V669a5.93,5.93,0,0,1-1.82,4.48,6.07,6.07,0,0,1-4.18,1.58,5.93,5.93,0,0,1-4.09-1.58,5.69,5.69,0,0,1-1.87-4.48Z"/><path d="M1549.42,659.19V656l3-2.18h3v21.06h-3V657Z"/><path d="M1563.63,659.19V656l3-2.18h3v21.06h-3V657Z"/><path d="M1387.47,694.46c0-2.11-1-3.18-3-3.22s-2.9,1.11-2.94,3.22v8.93c0,2.13,1,3.2,2.94,3.22s2.9-1.09,3-3.22Zm-8.93-.19a5.7,5.7,0,0,1,1.87-4.49,5.89,5.89,0,0,1,4.11-1.56,6,6,0,0,1,4.18,1.56,6,6,0,0,1,1.8,4.49v9.29a5.94,5.94,0,0,1-1.8,4.48,6.16,6.16,0,0,1-4.18,1.59,6,6,0,0,1-4.11-1.59,5.67,5.67,0,0,1-1.87-4.48Z"/><path d="M1401.67,694.46c0-2.11-1-3.18-3-3.22s-2.91,1.11-3,3.22v8.93c0,2.13,1,3.2,3,3.22s2.92-1.09,3-3.22Zm-8.92-.19a5.66,5.66,0,0,1,1.86-4.49,5.91,5.91,0,0,1,4.1-1.56,6,6,0,0,1,4.18,1.56,5.81,5.81,0,0,1,1.79,4.49v9.29a5.79,5.79,0,0,1-1.79,4.48,6.12,6.12,0,0,1-4.18,1.59,6,6,0,0,1-4.1-1.59,5.64,5.64,0,0,1-1.86-4.48Z"/><path d="M1415.88,694.46c-.06-2.11-1-3.18-3-3.22s-2.9,1.11-2.94,3.22v8.93q.06,3.2,2.94,3.22c1.93,0,2.91-1.09,3-3.22Zm-8.92-.19a5.59,5.59,0,0,1,1.86-4.49,5.89,5.89,0,0,1,4.09-1.56,6,6,0,0,1,4.18,1.56,5.89,5.89,0,0,1,1.8,4.49v9.29a5.87,5.87,0,0,1-1.8,4.48,6.09,6.09,0,0,1-4.18,1.59,6,6,0,0,1-4.09-1.59,5.57,5.57,0,0,1-1.86-4.48Z"/><path d="M1422.77,693.78v-3.2l3-2.19h3v21.06h-3V691.59Z"/><path d="M1437,693.78v-3.2l3-2.19h3v21.06h-3V691.59Z"/><path d="M1458.48,694.46c-.06-2.11-1.06-3.18-3-3.22s-2.91,1.11-3,3.22v8.93q.06,3.2,3,3.22c1.9,0,2.9-1.09,3-3.22Zm-8.94-.19a5.72,5.72,0,0,1,1.86-4.49,6,6,0,0,1,4.12-1.56,5.74,5.74,0,0,1,6,6v9.29a6,6,0,0,1-1.79,4.48,6.16,6.16,0,0,1-4.18,1.59,6.08,6.08,0,0,1-4.12-1.59,5.7,5.7,0,0,1-1.86-4.48Z"/><path d="M1465.37,693.78v-3.2l3-2.19h3v21.06h-3V691.59Z"/><path d="M1479.56,693.78v-3.2l3-2.19h3v21.06h-3V691.59Z"/><path d="M1493.77,693.78v-3.2l3-2.19h3v21.06h-3V691.59Z"/><path d="M1515.27,694.46c-.06-2.11-1-3.18-3-3.22s-2.9,1.11-2.94,3.22v8.93q.06,3.2,2.94,3.22c1.93,0,2.91-1.09,3-3.22Zm-8.92-.19a5.66,5.66,0,0,1,1.86-4.49,5.89,5.89,0,0,1,4.09-1.56,6,6,0,0,1,4.19,1.56,5.85,5.85,0,0,1,1.79,4.49v9.29a5.83,5.83,0,0,1-1.79,4.48,6.13,6.13,0,0,1-4.19,1.59,6,6,0,0,1-4.09-1.59,5.64,5.64,0,0,1-1.86-4.48Z"/><path d="M1529.48,694.46c-.06-2.11-1.06-3.18-3-3.22s-2.9,1.11-2.94,3.22v8.93q.06,3.2,2.94,3.22c1.91,0,2.91-1.09,3-3.22Zm-8.92-.19a5.59,5.59,0,0,1,1.86-4.49,5.82,5.82,0,0,1,4.09-1.56,6,6,0,0,1,4.18,1.56,5.89,5.89,0,0,1,1.8,4.49v9.29a5.87,5.87,0,0,1-1.8,4.48,6.12,6.12,0,0,1-4.18,1.59,5.94,5.94,0,0,1-4.09-1.59,5.57,5.57,0,0,1-1.86-4.48Z"/><path d="M1543.67,694.46q-.08-3.16-3-3.22c-1.91,0-2.9,1.11-2.92,3.22v8.93c0,2.13,1,3.2,2.92,3.22s2.92-1.09,3-3.22Zm-8.93-.19a5.7,5.7,0,0,1,1.87-4.49,5.87,5.87,0,0,1,4.09-1.56,6,6,0,0,1,4.18,1.56,5.9,5.9,0,0,1,1.82,4.49v9.29a5.88,5.88,0,0,1-1.82,4.48,6.1,6.1,0,0,1-4.18,1.59,6,6,0,0,1-4.09-1.59,5.67,5.67,0,0,1-1.87-4.48Z"/><path d="M1557.87,694.46c-.06-2.11-1-3.18-3-3.22s-2.91,1.11-3,3.22v8.93q.06,3.2,3,3.22c1.92,0,2.9-1.09,3-3.22Zm-8.92-.19a5.66,5.66,0,0,1,1.86-4.49,5.91,5.91,0,0,1,4.1-1.56,6,6,0,0,1,4.18,1.56,5.81,5.81,0,0,1,1.79,4.49v9.29a5.79,5.79,0,0,1-1.79,4.48,6.12,6.12,0,0,1-4.18,1.59,6,6,0,0,1-4.1-1.59,5.64,5.64,0,0,1-1.86-4.48Z"/><path d="M1564.76,693.78v-3.2l3-2.19h3v21.06h-3V691.59Z"/><path d="M1381.29,728.38v-3.21l3-2.18h3v21.06h-3V726.18Z"/><path d="M1395.5,728.38v-3.21l3-2.18h3v21.06h-3V726.18Z"/><path d="M1417,729.06c-.07-2.11-1-3.19-3-3.23s-2.9,1.12-2.94,3.23V738c0,2.13,1,3.21,2.94,3.22s2.9-1.09,3-3.22Zm-8.92-.19a5.54,5.54,0,0,1,1.86-4.49,5.85,5.85,0,0,1,4.09-1.57,6,6,0,0,1,4.18,1.57,5.86,5.86,0,0,1,1.8,4.49v9.29a5.86,5.86,0,0,1-1.8,4.47,6.1,6.1,0,0,1-4.18,1.59,6,6,0,0,1-4.09-1.59,5.53,5.53,0,0,1-1.86-4.47Z"/><path d="M1431.2,729.06c0-2.11-1-3.19-3-3.23s-2.92,1.12-3,3.23V738c0,2.13,1,3.21,3,3.22s2.9-1.09,3-3.22Zm-8.93-.19a5.69,5.69,0,0,1,1.86-4.49,5.89,5.89,0,0,1,4.12-1.57,5.8,5.8,0,0,1,6,6.06v9.29a5.91,5.91,0,0,1-1.82,4.47,6.11,6.11,0,0,1-4.16,1.59,6,6,0,0,1-4.12-1.59,5.69,5.69,0,0,1-1.86-4.47Z"/><path d="M1445.4,729.06c-.06-2.11-1-3.19-3-3.23s-2.91,1.12-3,3.23V738c0,2.13,1,3.21,3,3.22s2.9-1.09,3-3.22Zm-8.92-.19a5.63,5.63,0,0,1,1.86-4.49,5.86,5.86,0,0,1,4.1-1.57,6,6,0,0,1,4.18,1.57,5.78,5.78,0,0,1,1.79,4.49v9.29a5.78,5.78,0,0,1-1.79,4.47,6.12,6.12,0,0,1-4.18,1.59,6,6,0,0,1-4.1-1.59,5.63,5.63,0,0,1-1.86-4.47Z"/><path d="M1459.61,729.06c-.06-2.11-1.06-3.19-3-3.23s-2.9,1.12-2.94,3.23V738c0,2.13,1,3.21,2.94,3.22s2.91-1.09,3-3.22Zm-8.94-.19a5.69,5.69,0,0,1,1.86-4.49,5.9,5.9,0,0,1,4.11-1.57,5.77,5.77,0,0,1,6,6.06v9.29a5.93,5.93,0,0,1-1.8,4.47,6.12,6.12,0,0,1-4.18,1.59,6.06,6.06,0,0,1-4.11-1.59,5.69,5.69,0,0,1-1.86-4.47Z"/><path d="M1466.5,728.38v-3.21l3-2.18h3v21.06h-3V726.18Z"/><path d="M1480.68,728.38v-3.21l3-2.18h3v21.06h-3V726.18Z"/><path d="M1494.89,728.38v-3.21l3-2.18h3v21.06h-3V726.18Z"/><path d="M1516.4,729.06c-.07-2.11-1-3.19-3-3.23s-2.9,1.12-2.94,3.23V738c0,2.13,1,3.21,2.94,3.22s2.9-1.09,3-3.22Zm-8.92-.19a5.6,5.6,0,0,1,1.86-4.49,5.85,5.85,0,0,1,4.09-1.57,6,6,0,0,1,4.18,1.57,5.79,5.79,0,0,1,1.8,4.49v9.29a5.79,5.79,0,0,1-1.8,4.47,6.1,6.1,0,0,1-4.18,1.59,6,6,0,0,1-4.09-1.59,5.6,5.6,0,0,1-1.86-4.47Z"/><path d="M1530.61,729.06q-.1-3.16-3-3.23c-1.93,0-2.9,1.12-3,3.23V738c0,2.13,1,3.21,3,3.22s2.9-1.09,3-3.22Zm-8.93-.19a5.54,5.54,0,0,1,1.87-4.49,5.77,5.77,0,0,1,4.09-1.57,6,6,0,0,1,4.18,1.57,5.9,5.9,0,0,1,1.8,4.49v9.29a5.9,5.9,0,0,1-1.8,4.47,6.16,6.16,0,0,1-4.18,1.59,5.92,5.92,0,0,1-4.09-1.59,5.54,5.54,0,0,1-1.87-4.47Z"/><path d="M1544.79,729.06c0-2.11-1-3.19-3-3.23s-2.91,1.12-2.93,3.23V738c0,2.13,1,3.21,2.93,3.22s2.92-1.09,3-3.22Zm-8.92-.19a5.69,5.69,0,0,1,1.86-4.49,5.88,5.88,0,0,1,4.1-1.57,6,6,0,0,1,4.18,1.57,5.91,5.91,0,0,1,1.82,4.49v9.29a5.91,5.91,0,0,1-1.82,4.47,6.12,6.12,0,0,1-4.18,1.59,6,6,0,0,1-4.1-1.59,5.69,5.69,0,0,1-1.86-4.47Z"/><path d="M1551.68,728.38v-3.21l3-2.18h3v21.06h-3V726.18Z"/><path d="M1565.89,728.38v-3.21l3-2.18h3v21.06h-3V726.18Z"/><path class="cls-2" d="M1696.36,923.26a22.38,22.38,0,1,0,22.37,22.38A22.4,22.4,0,0,0,1696.36,923.26Zm0,2.57a19.81,19.81,0,1,1-19.81,19.81A19.83,19.83,0,0,1,1696.36,925.83Z"/><path class="cls-2" d="M1749.19,853.93a22.38,22.38,0,1,0,22.36,22.37A22.39,22.39,0,0,0,1749.19,853.93Zm0,2.56a19.81,19.81,0,1,1-19.81,19.81A19.84,19.84,0,0,1,1749.19,856.49Z"/><path class="cls-5" d="M912.54,719.84,815.55,878,649.08,837.49l-13.6,103.88s135.78,61.57,219,31.13c68.3-25,125-211.5,125-211.5Z"/><path class="cls-2" d="M913.23,718.74a1.31,1.31,0,0,0-1.78.42L814.94,876.49,649.39,836.24a1.31,1.31,0,0,0-1,.19,1.27,1.27,0,0,0-.55.89L634.2,941.2a1.31,1.31,0,0,0,.75,1.34s49,22.22,106.27,33.4c38.27,7.49,80.24,10,113.75-2.23,20.69-7.56,40.4-29.76,57.74-57.21,40.16-63.54,68-155.12,68-155.12a1.26,1.26,0,0,0-.55-1.47ZM913,721.6l65,40c-3,9.82-29.78,94-67.4,153.56-17,26.9-36.16,48.75-56.45,56.17-33.1,12.09-74.56,9.52-112.39,2.13-52.51-10.26-98.05-29.86-104.82-32.85l13.29-101.51,165.07,40.14a1.29,1.29,0,0,0,1.4-.58Z"/><path class="cls-5" d="M946.19,650.17c-15.42,3.62-22.11,42.84-30.41,71.44l40,53s48-17.84,56.87-34.67c13.19-24.87-3.7-66.51-3.7-66.51l-51.78,15.12Z"/><path class="cls-2" d="M947.44,649.81a1.3,1.3,0,0,0-1.54-.89,15,15,0,0,0-7.41,4.65c-3.19,3.42-6,8.49-8.46,14.58-6.07,14.87-10.49,35.9-15.48,53.1a1.3,1.3,0,0,0,.2,1.13l40,53a1.28,1.28,0,0,0,1.48.43S979.82,767,997.09,756c7.58-4.87,13.91-10.19,16.67-15.4,5.39-10.16,5.9-23.06,4.51-34.89a140.87,140.87,0,0,0-8.18-32.69,1.3,1.3,0,0,0-1.55-.74L958,687Zm-2.12,2,10.57,37.14a1.19,1.19,0,0,0,.62.78,1.24,1.24,0,0,0,1,.11l50.67-14.8a139.68,139.68,0,0,1,7.59,31c1.31,11.32.9,23.67-4.25,33.4-2.6,4.9-8.65,9.85-15.77,14.43-15.08,9.68-35.09,17.59-39.52,19.3l-39-51.75c4.89-17,9.25-37.61,15.21-52.21A53.19,53.19,0,0,1,938.93,657,15.21,15.21,0,0,1,945.32,651.78Z"/><path class="cls-5" d="M1195.42,559.56a17,17,0,0,0-9.12-9.37,17.24,17.24,0,0,0-13.14-.17L920.1,650a17.24,17.24,0,0,0-9.47,9.1,17,17,0,0,0-.25,13.08l60.68,153.61a17,17,0,0,0,9.12,9.37,17.24,17.24,0,0,0,13.14.17l253.06-100a17.24,17.24,0,0,0,9.47-9.1,17,17,0,0,0,.25-13.08Z"/><path class="cls-2" d="M1199.69,552.82a18.62,18.62,0,0,0-24.15-10.48L918.08,644.05a18.64,18.64,0,0,0-10.47,24.16l62.25,157.57A18.6,18.6,0,0,0,994,836.26l257.47-101.71a18.6,18.6,0,0,0,10.46-24.15Zm-2.08.82,62.25,157.58a16.39,16.39,0,0,1-9.21,21.25L993.19,834.18A16.39,16.39,0,0,1,972,825L909.7,667.38a16.38,16.38,0,0,1,9.2-21.25l257.47-101.71a16.38,16.38,0,0,1,21.24,9.22Z"/><path class="cls-9" d="M1176.29,578.57a15,15,0,0,0-7.91-8.24,14.67,14.67,0,0,0-11.32-.22L939.6,656a14.65,14.65,0,0,0-8.11,7.9,15,15,0,0,0-.15,11.42l53.14,134.5a15,15,0,0,0,7.91,8.24,14.71,14.71,0,0,0,11.32.22l217.46-85.91a14.68,14.68,0,0,0,8.11-7.9,15.05,15.05,0,0,0,.15-11.42Z"/><path class="cls-2" d="M1186.31,568.82a16.57,16.57,0,0,0-21.49-9.32L937.63,649.25a16.57,16.57,0,0,0-9.31,21.49l54.93,139a16.54,16.54,0,0,0,21.48,9.32l227.19-89.75a16.56,16.56,0,0,0,9.32-21.49Zm-2.09.82,54.93,139.05a14.31,14.31,0,0,1-8.05,18.57L1003.91,817a14.31,14.31,0,0,1-18.58-8L930.4,669.91a14.32,14.32,0,0,1,8.06-18.57l227.19-89.75a14.29,14.29,0,0,1,18.57,8Z"/><path class="cls-2" d="M1027.12,684.47a6.33,6.33,0,0,1,10.45-4.13L1136.09,766l-122.34,48.33S1023.58,718.84,1027.12,684.47Z"/><path class="cls-2" d="M1026.74,677.21c-3.73,36.25-14.11,137-14.11,137a1.14,1.14,0,0,0,.45,1,1.1,1.1,0,0,0,1.08.15l129.08-51a1.15,1.15,0,0,0,.69-.85,1.12,1.12,0,0,0-.37-1s-76.43-66.47-103.94-90.38a7.8,7.8,0,0,0-12.88,5.09Zm2.23.23a5.55,5.55,0,0,1,9.18-3.62L1140.7,763l-125.65,49.64Z"/><path class="cls-5" d="M1128.82,697.88a10,10,0,0,1,14.15-5.59L1219.6,733l-118.9,47Z"/><path class="cls-2" d="M1134.08,691.12l-29.65,86.61a1.11,1.11,0,0,0,.29,1.18,1.1,1.1,0,0,0,1.17.23l125.46-49.56a1.12,1.12,0,0,0,.11-2s-56.51-30-80.85-43a11.66,11.66,0,0,0-16.53,6.53Zm2.13.72a9.44,9.44,0,0,1,13.36-5.28l78.7,41.82-120.93,47.78Z"/><circle class="cls-10" cx="1139.2" cy="628.54" r="27.53"/><path class="cls-2" d="M1135,590.26a30.16,30.16,0,1,0,39.13,17,30.17,30.17,0,0,0-39.13-17Zm.82,2.09a27.92,27.92,0,1,1-15.71,36.22,27.93,27.93,0,0,1,15.71-36.22Z"/><ellipse cx="690.49" cy="799.04" rx="47.46" ry="45.47"/><path class="cls-2" d="M697,735.23a55.28,55.28,0,1,0,55.28,55.28A55.31,55.31,0,0,0,697,735.23Zm0,2.57a52.72,52.72,0,1,1-52.71,52.71A52.73,52.73,0,0,1,697,737.8Z"/><path class="cls-5" d="M662.66,1079.37H479.54L326.48,1452.92H509.6Z"/><g class="cls-11"><path class="cls-2" d="M404.47,1032c16.83,16,32.33,34.66,47.5,52.76,17.5,20.9,35.1,42.54,47.47,68.29,17.14,35.7,25.79,79.56,26.59,120.52.82,42.69-16,81.7-28.26,120.85-4.67,15-15.6,38.88-9.57,54.95,6.24,16.67,31.56,7.65,41.85,3.75a145.12,145.12,0,0,0,35.11-19.61c85.66-63.81,99.21-200.08,85.66-308.71-3-24.19-7.39-48.42-14.27-71.52s-16.09-46.35-31.33-63.42C564.78,944.51,450.25,995.38,404.47,1032Z"/></g><path class="cls-2" d="M663.86,1079.85a1.34,1.34,0,0,0-.11-1.2,1.36,1.36,0,0,0-1.09-.57H479.54a1.29,1.29,0,0,0-1.18.8L325.3,1452.44a1.31,1.31,0,0,0,.12,1.2,1.28,1.28,0,0,0,1.06.56H509.6a1.31,1.31,0,0,0,1.2-.79Zm-3.1.8-152,371H328.4l152-371Z"/><path class="cls-5" d="M691.69,1079.37H508.57s98.2,148.59,103.49,210.85c5,59.07-71.71,162.7-71.71,162.7H723.47s49.23-64.71,51.35-137.85C777.35,1228.38,691.69,1079.37,691.69,1079.37Z"/><path class="cls-2" d="M692.8,1078.73a1.29,1.29,0,0,0-1.11-.65H508.57a1.27,1.27,0,0,0-1.13.68,1.31,1.31,0,0,0,0,1.31s48.08,72.73,78.75,137.7c13.06,27.71,23,54,24.57,72.56,2,23.42-9,53.94-22.94,82.1-21,42.51-48.53,79.74-48.53,79.74a1.28,1.28,0,0,0,1,2H723.47a1.33,1.33,0,0,0,1-.49s49.45-65.07,51.6-138.6C778.64,1228.18,692.8,1078.73,692.8,1078.73Zm-1.85,1.92c6,10.66,85,151.25,82.58,234.39-2,69-46.15,130.44-50.69,136.61h-180c6-8.36,29.11-41.25,47.28-78.09,14.11-28.61,25.23-59.65,23.19-83.45-1.6-18.79-11.59-45.4-24.81-73.44-27.74-58.79-69.71-123.92-77.6-136Z"/><path class="cls-8" d="M691.71,856.32c-18.09-37.18-76.41-65.44-103.92-37.52-36.6,37.17-115.74,260.56-115.74,260.56H714.46S712.83,899.75,691.71,856.32Z"/><g class="cls-12"><path class="cls-2" d="M778.28,1104c-4.57-.08-9.82-3.24-13.92-5-10.4-4.51-20.66-9.39-30.92-14.25-47.7-22.6-89.32-52.9-117.48-98.3a324.29,324.29,0,0,1-23.2-43.78c-1.41-3.38-5.68-11.15-2.75-14.75,3.18-3.87,14.36,1.92,17.61,3.19,18.63,7.29,36.08,18.51,53,29a535.59,535.59,0,0,1,47.76,33.63C733.41,1013.39,763.24,1076,778.28,1104Z"/></g><path class="cls-1" d="M692.87,855.76c-11-22.63-36.7-42-61.54-47.77-16.78-3.89-33.13-1.58-44.44,9.91-11.06,11.21-26,39.25-41.42,73-35.84,78.47-74.64,188-74.64,188a1.29,1.29,0,0,0,1.22,1.72H714.46a1.34,1.34,0,0,0,.93-.38,1.36,1.36,0,0,0,.36-.92s-.8-88.08-8.54-155.85c-3.34-29.19-8-54.63-14.34-67.74Zm-2.33,1.12c6.29,13,10.82,38.08,14.11,66.92,7.17,62.83,8.39,143.17,8.51,154.28H473.86c5.07-14.18,40.79-113.44,73.94-186.07,15.27-33.44,30-61.22,40.9-72.31,10.69-10.85,26.19-12.89,42.06-9.21,24.12,5.59,49.09,24.4,59.78,46.39Z"/><path class="cls-8" d="M920.82,837.69,772.49,949.08,632.56,850.25l-50.84,91.6S685.35,1049,774,1051.34c72.69,1.89,193.95-150.77,193.95-150.77Z"/><path class="cls-1" d="M921.86,836.92a1.31,1.31,0,0,0-.86-.5,1.29,1.29,0,0,0-1,.24L772.46,947.5,633.3,849.2a1.34,1.34,0,0,0-1-.21,1.29,1.29,0,0,0-.83.63l-50.84,91.61a1.29,1.29,0,0,0,.21,1.51s37.4,38.69,86.54,70.14c32.84,21,70.95,38.81,106.61,39.74,22,.57,48.51-12.83,74.73-32,60.71-44.32,120.24-119.27,120.24-119.27a1.28,1.28,0,0,0,0-1.57Zm-1.29,2.57,45.73,61.06c-6.44,8-62.27,76.51-119.14,118-25.7,18.76-51.55,32-73.14,31.48-35.23-.92-72.84-18.55-105.3-39.33-45.07-28.85-80.22-63.82-85.41-69.08L633,852.12l138.76,98a1.29,1.29,0,0,0,1.51,0Z"/><path class="cls-5" d="M677.48,776.93l-40.64-12.46-19,43c8.57,27.8,78,41.1,47.8,17.66Z"/><g class="cls-13"><path class="cls-2" d="M682.79,820.64c-4.57-.84-8.74-3.24-12.51-5.9-6.34-4.45-11.74-10-15-17.08a32.93,32.93,0,0,1-2.4-7.88,45.2,45.2,0,0,1-.63-5.18,15.55,15.55,0,0,1,.06-3.34,7.22,7.22,0,0,1,.56-2c2.23-4.68,8.62.71,11,2.48.85.65,1.66,1.31,2.47,2s1.78,1.56,2.6,2.36c1.2,1.16,2.33,2.36,3.43,3.6C675.49,793.29,680.41,816.55,682.79,820.64Z"/></g><path class="cls-2" d="M678.74,777.24a1.28,1.28,0,0,0-.88-1.53l-40.65-12.47a1.29,1.29,0,0,0-1.54.72l-18.95,43a1.36,1.36,0,0,0-.06.89c3.1,10,13.8,18.31,25.17,23.69s23.32,7.85,28.75,6.62a5,5,0,0,0,3.58-2.34c.58-1.11.56-2.59-.5-4.44s-3.12-4-6.54-6.75Zm-2.78.57-11.52,47.07a1.29,1.29,0,0,0,.44,1.31c3.46,2.68,5.57,4.82,6.54,6.52.5.85.72,1.49.47,2s-1,.78-1.86,1c-5.15,1.16-16.39-1.36-27.11-6.43-10.52-5-20.58-12.45-23.66-21.67L637.56,766Z"/><path class="cls-5" d="M657,689.3c21.56,0,39,22.09,39,49.29s3,62.27-18.53,62.27-59.6-35.07-59.6-62.27S635.4,689.3,657,689.3Z"/><path class="cls-2" d="M657,688c-22.2,0-40.35,22.59-40.35,50.57,0,13.89,9.63,29.82,22.08,42.24s27.78,21.31,38.79,21.31c9.24,0,14.37-5.91,17.06-15,3.82-12.81,2.76-32.1,2.76-48.55C697.31,710.61,679.14,688,657,688Zm0,2.56c20.92,0,37.76,21.59,37.76,48,0,16.2,1.13,35.21-2.62,47.82-2.35,7.86-6.62,13.17-14.62,13.17-10.53,0-25-8.67-37-20.56s-21.34-27.11-21.34-40.43C619.17,712.17,636,690.58,657,690.58Z"/><path class="cls-2" d="M670.47,654.62c10.86-13.57,27.09-22.19,45.2-22.19,32.67,0,59.2,28.08,59.2,62.66s-26.53,62.66-59.2,62.66a56.31,56.31,0,0,1-26.58-6.66,45.77,45.77,0,0,1-21.61,5.42c-1.19,0-2.35,0-3.49-.13v1.37c0,25.62-14.41,47.71-35.1,57.68a49.17,49.17,0,0,1,21.05,40.79c0,26.76-20.53,48.48-45.82,48.48-23.45,0-42.81-18.69-45.49-42.75a34.32,34.32,0,0,1-14,3c-19.91,0-36.09-17.11-36.09-38.19s16.18-38.19,36.09-38.19a34,34,0,0,1,7.6.85,65.94,65.94,0,0,1-8-31.64c0-30.29,20.12-55.64,47-61.88a31,31,0,0,1-2.11-11.36c0-16.55,12.69-30,28.33-30a27.61,27.61,0,0,1,21.21,10.1,46.24,46.24,0,0,1,28.79-10.1C668.47,654.52,669.49,654.55,670.47,654.62Z"/><path class="cls-2" d="M669.11,644.12c-.88,0-1.78-.07-2.67-.07a53.2,53.2,0,0,0-31,9.89,31.94,31.94,0,0,0-53.19,32.73,66,66,0,0,0-42.86,94.76,39.6,39.6,0,0,0-5.8-.42,40.32,40.32,0,1,0,14.06,78.11A50.84,50.84,0,1,0,627.3,810,66.05,66.05,0,0,0,664,750.83v0c.82,0,1.64.06,2.49.06a53,53,0,0,0,23.37-5.39,65.32,65.32,0,1,0-20.7-101.34Zm.48,2.59a1.23,1.23,0,0,0,1-.45,62.76,62.76,0,1,1,19.76,96.62,1.29,1.29,0,0,0-1.15,0,50.63,50.63,0,0,1-22.81,5.4c-1.24,0-2.47,0-3.7-.13a1.27,1.27,0,0,0-1.36,1.31v1.37a63.52,63.52,0,0,1-37.18,57.78,1.33,1.33,0,0,0-.77,1.08,1.3,1.3,0,0,0,.59,1.17,48.27,48.27,0,1,1-74,46.31,1.17,1.17,0,0,0-.61-1,1.31,1.31,0,0,0-1.16-.07,37.75,37.75,0,1,1-14.6-72.56,38.05,38.05,0,0,1,8,.84,1.28,1.28,0,0,0,1.38-1.9,63.46,63.46,0,0,1,41.32-93.68,1.27,1.27,0,0,0,.87-.66,1.31,1.31,0,0,0,.05-1.08,29.38,29.38,0,0,1,49.17-30.6,1.26,1.26,0,0,0,1.72.18,50.62,50.62,0,0,1,30.36-10.06Q668,646.62,669.59,646.71Z"/><path class="cls-2" d="M665.05,619.22c-4.13-5.19-10.11-8.46-16.09-11.14-27.69-12.39-53.68.88-67.52,26.72-3.31,6.18-4.51,13.62-6.56,20.49-1.9,6.46-4.6,12.41-11,16-9.47,5.38-21.22,5.3-31.74,6.57-16.89,2.06-34.23,6-46.73,18.42-13.88,13.71-15.5,35.73-10.93,53.81a1.25,1.25,0,0,0,1.54.93,1.31,1.31,0,0,0,1-1.55c-4.34-17.25-3-38.29,10.24-51.37,12.08-12,28.89-15.7,45.26-17.69,10.83-1.32,22.94-1.34,32.67-6.89,7-4,10.08-10.45,12.19-17.54,2-6.7,3.13-14,6.36-20,13.17-24.6,37.88-37.38,64.21-25.58,5.62,2.5,11.24,5.52,15.14,10.39a1.28,1.28,0,0,0,2-1.6Z"/><path class="cls-2" d="M670.08,634.63c1.16-4.35,3.93-7.77,7.08-10.91,9.57-9.44,21.46-12.28,34.57-11.83,6.65.24,13.42,1.29,19.81,1,6.67-.36,13-2.19,18.37-7.79a1.28,1.28,0,1,0-1.84-1.78c-4.91,5.06-10.63,6.68-16.66,7-6.34.33-13-.72-19.6-.95-13.84-.48-26.36,2.6-36.44,12.57-3.49,3.46-6.5,7.27-7.75,12.08a1.28,1.28,0,0,0,.89,1.56A1.27,1.27,0,0,0,670.08,634.63Z"/><path class="cls-2" d="M669.93,615.28c.64-3.71-.65-7.78-1.9-11.22-1.85-5-4.39-10.57-8.62-14-6.27-5.09-16.17-5.95-23.84-7a1.3,1.3,0,0,0-1.47,1.1,1.28,1.28,0,0,0,1.11,1.45c7.26,1,16.68,1.68,22.58,6.49,3.87,3.16,6.13,8.32,7.82,12.92,1.11,3,2.34,6.62,1.8,9.91a1.28,1.28,0,1,0,2.52.42Z"/><path class="cls-2" d="M679.29,609.08a4.42,4.42,0,0,1,1.88-2.81,33.89,33.89,0,0,1,5.9-3.65,1.29,1.29,0,0,0-1.26-2.25,36.14,36.14,0,0,0-6.31,4,6.89,6.89,0,0,0-2.77,4.64,1.3,1.3,0,0,0,1.23,1.34A1.26,1.26,0,0,0,679.29,609.08Z"/><path class="cls-5" d="M955,771c-15.43,3.62-22.12,42.84-30.42,71.43l40,53s47.95-17.84,56.87-34.67c13.19-24.87-3.71-66.51-3.71-66.51L966,809.39Z"/><path class="cls-2" d="M956.28,770.63a1.3,1.3,0,0,0-1.54-.89,15,15,0,0,0-7.41,4.64c-3.2,3.43-6,8.5-8.46,14.59-6.07,14.86-10.49,35.89-15.49,53.09a1.36,1.36,0,0,0,.21,1.14l40,53a1.3,1.3,0,0,0,1.47.43s23.63-8.79,40.9-19.88c7.58-4.87,13.9-10.2,16.66-15.4,5.39-10.17,5.9-23.06,4.52-34.89a140.87,140.87,0,0,0-8.18-32.69,1.3,1.3,0,0,0-1.55-.75l-50.53,14.75Zm-2.12,2,10.57,37.15a1.16,1.16,0,0,0,.61.77,1.22,1.22,0,0,0,1,.12l50.67-14.8a140.13,140.13,0,0,1,7.59,30.94c1.31,11.32.9,23.68-4.26,33.41-2.59,4.9-8.64,9.85-15.76,14.42-15.09,9.69-35.09,17.6-39.52,19.31l-39-51.75c4.9-17,9.26-37.61,15.22-52.22a53.5,53.5,0,0,1,6.52-12.1A15.25,15.25,0,0,1,954.16,772.59Z"/><path class="cls-2" d="M981.92,830.78c14.7-3.74,30.38-7.25,41.78-18.24a1.29,1.29,0,0,0,0-1.82,1.26,1.26,0,0,0-1.79,0c-11.09,10.68-26.36,14-40.65,17.61a1.28,1.28,0,0,0,.64,2.48Z"/><path class="cls-2" d="M992.37,856.49c3.23-.22,7-2,9.93-3.24a76.18,76.18,0,0,0,24.61-16.57,1.29,1.29,0,1,0-1.8-1.84,73.36,73.36,0,0,1-23.76,16c-2.72,1.1-6.16,2.86-9.16,3.06a1.28,1.28,0,1,0,.18,2.56Z"/><path class="cls-2" d="M486.42,1452.91H263.68a59,59,0,1,1,0-118.06h.2a111.37,111.37,0,1,1,219.2,33.89c1.11-.1,2.21-.15,3.34-.15a42.16,42.16,0,0,1,.28,84.32Z"/><path class="cls-2" d="M294.61,1333.56a60.32,60.32,0,0,0,1,120.64h223a43.45,43.45,0,0,0-.28-86.89c-.56,0-1.13,0-1.69,0a112.67,112.67,0,1,0-222-33.8Zm224,118.07h-223a57.75,57.75,0,1,1,0-115.5h.2a1.27,1.27,0,0,0,1.26-1.21,110.1,110.1,0,1,1,216.69,33.49,1.25,1.25,0,0,0,.28,1.16,1.37,1.37,0,0,0,1.08.46c1.07-.1,2.15-.16,3.23-.16a40.88,40.88,0,0,1,.28,81.76Z"/><path class="cls-5" d="M383.45,1452.92H535a40.16,40.16,0,1,0,0-80.32h-.14a75.76,75.76,0,1,0-149.11,23.06c-.75-.07-1.5-.1-2.27-.1a28.68,28.68,0,0,0-.19,57.36Z"/><path class="cls-2" d="M565.67,1371.33a77,77,0,1,0-151.95,23h-.63a30,30,0,0,0-.19,59.93H564.61a41.45,41.45,0,0,0,1.06-82.88Zm-1.26,2.55h.2a38.88,38.88,0,1,1,0,77.76H413.09a1.29,1.29,0,0,1,0,2.57s1.45-2.57,0-2.57a.32.32,0,0,0-.14,0v0a27.4,27.4,0,0,1,.18-54.79c.73,0,1.45,0,2.18.09a1.31,1.31,0,0,0,1.35-1.59,74.48,74.48,0,1,1,146.57-22.68A1.29,1.29,0,0,0,564.41,1373.88Zm.2-.14h0v0Z"/></g></svg>